<svg width="32" height="32" viewBox="0 0 32 32" fill="none" xmlns="http://www.w3.org/2000/svg">
<circle cx="16" cy="16" r="16" fill="#FF7A00"/>
<path d="M22.7005 13.9519L23.9786 21.9519C24.019 22.2051 24.0021 22.4637 23.9291 22.7101C23.8561 22.9564 23.7287 23.1846 23.5556 23.3791C23.3826 23.5736 23.1679 23.7298 22.9263 23.8369C22.6847 23.9441 22.422 23.9997 22.156 23.9999H9.84583C9.57972 23.9999 9.31675 23.9445 9.07496 23.8375C8.83316 23.7305 8.61825 23.5743 8.44496 23.3798C8.27167 23.1853 8.14411 22.957 8.071 22.7105C7.9979 22.464 7.981 22.2052 8.02145 21.9519L9.29953 13.9519C9.36657 13.532 9.58752 13.1491 9.92235 12.8725C10.2572 12.596 10.6838 12.4441 11.1248 12.4443H20.877C21.3179 12.4443 21.7443 12.5963 22.0789 12.8728C22.4136 13.1493 22.6344 13.5321 22.7014 13.9519H22.7005Z" stroke="white" stroke-width="1.5" stroke-linecap="round" stroke-linejoin="round"/>
<path d="M17.8464 9.77778C17.8464 9.30628 17.652 8.8541 17.3059 8.5207C16.9598 8.1873 16.4903 8 16.0009 8C15.5114 8 15.0419 8.1873 14.6958 8.5207C14.3497 8.8541 14.1553 9.30628 14.1553 9.77778" stroke="white" stroke-width="1.5" stroke-linecap="round" stroke-linejoin="round"/>
<path d="M15.9935 18.6667V21.3333M13.2251 18.6667H15.9935H13.2251ZM18.762 18.6667H15.9935H18.762ZM15.9935 18.6667V16V18.6667Z" stroke="white" stroke-width="1.5" stroke-linecap="round" stroke-linejoin="round"/>
</svg>
