<svg width="192" height="39" viewBox="0 0 192 39" fill="none" xmlns="http://www.w3.org/2000/svg">
<path d="M7.49805 2.45312V38H0.173828V2.45312H7.49805ZM21.6582 17.6387V23.3516H5.49609V17.6387H21.6582ZM23.3672 2.45312V8.19043H5.49609V2.45312H23.3672ZM25.5156 25.0605V24.5479C25.5156 22.611 25.7923 20.8288 26.3457 19.2012C26.8991 17.5573 27.7048 16.1331 28.7627 14.9287C29.8206 13.7243 31.1227 12.7884 32.6689 12.1211C34.2152 11.4375 35.9893 11.0957 37.9912 11.0957C39.9932 11.0957 41.7754 11.4375 43.3379 12.1211C44.9004 12.7884 46.2106 13.7243 47.2686 14.9287C48.3428 16.1331 49.1566 17.5573 49.71 19.2012C50.2633 20.8288 50.54 22.611 50.54 24.5479V25.0605C50.54 26.9811 50.2633 28.7633 49.71 30.4072C49.1566 32.0348 48.3428 33.459 47.2686 34.6797C46.2106 35.8841 44.9085 36.82 43.3623 37.4873C41.8161 38.1546 40.042 38.4883 38.04 38.4883C36.0381 38.4883 34.2559 38.1546 32.6934 37.4873C31.1471 36.82 29.8369 35.8841 28.7627 34.6797C27.7048 33.459 26.8991 32.0348 26.3457 30.4072C25.7923 28.7633 25.5156 26.9811 25.5156 25.0605ZM32.5469 24.5479V25.0605C32.5469 26.1673 32.6445 27.2008 32.8398 28.1611C33.0352 29.1214 33.3444 29.9678 33.7676 30.7002C34.207 31.4163 34.7767 31.9779 35.4766 32.3848C36.1764 32.7917 37.0309 32.9951 38.04 32.9951C39.0166 32.9951 39.8548 32.7917 40.5547 32.3848C41.2546 31.9779 41.8161 31.4163 42.2393 30.7002C42.6624 29.9678 42.9717 29.1214 43.167 28.1611C43.3786 27.2008 43.4844 26.1673 43.4844 25.0605V24.5479C43.4844 23.4736 43.3786 22.4645 43.167 21.5205C42.9717 20.5602 42.6543 19.7139 42.2148 18.9814C41.7917 18.2327 41.2301 17.6468 40.5303 17.2236C39.8304 16.8005 38.984 16.5889 37.9912 16.5889C36.9984 16.5889 36.152 16.8005 35.4521 17.2236C34.7686 17.6468 34.207 18.2327 33.7676 18.9814C33.3444 19.7139 33.0352 20.5602 32.8398 21.5205C32.6445 22.4645 32.5469 23.4736 32.5469 24.5479ZM53.7383 25.0605V24.5479C53.7383 22.611 54.015 20.8288 54.5684 19.2012C55.1217 17.5573 55.9274 16.1331 56.9854 14.9287C58.0433 13.7243 59.3454 12.7884 60.8916 12.1211C62.4378 11.4375 64.2119 11.0957 66.2139 11.0957C68.2158 11.0957 69.998 11.4375 71.5605 12.1211C73.123 12.7884 74.4333 13.7243 75.4912 14.9287C76.5654 16.1331 77.3792 17.5573 77.9326 19.2012C78.486 20.8288 78.7627 22.611 78.7627 24.5479V25.0605C78.7627 26.9811 78.486 28.7633 77.9326 30.4072C77.3792 32.0348 76.5654 33.459 75.4912 34.6797C74.4333 35.8841 73.1312 36.82 71.585 37.4873C70.0387 38.1546 68.2646 38.4883 66.2627 38.4883C64.2607 38.4883 62.4785 38.1546 60.916 37.4873C59.3698 36.82 58.0596 35.8841 56.9854 34.6797C55.9274 33.459 55.1217 32.0348 54.5684 30.4072C54.015 28.7633 53.7383 26.9811 53.7383 25.0605ZM60.7695 24.5479V25.0605C60.7695 26.1673 60.8672 27.2008 61.0625 28.1611C61.2578 29.1214 61.5671 29.9678 61.9902 30.7002C62.4297 31.4163 62.9993 31.9779 63.6992 32.3848C64.3991 32.7917 65.2536 32.9951 66.2627 32.9951C67.2393 32.9951 68.0775 32.7917 68.7773 32.3848C69.4772 31.9779 70.0387 31.4163 70.4619 30.7002C70.8851 29.9678 71.1943 29.1214 71.3896 28.1611C71.6012 27.2008 71.707 26.1673 71.707 25.0605V24.5479C71.707 23.4736 71.6012 22.4645 71.3896 21.5205C71.1943 20.5602 70.877 19.7139 70.4375 18.9814C70.0143 18.2327 69.4528 17.6468 68.7529 17.2236C68.0531 16.8005 67.2067 16.5889 66.2139 16.5889C65.221 16.5889 64.3747 16.8005 63.6748 17.2236C62.9912 17.6468 62.4297 18.2327 61.9902 18.9814C61.5671 19.7139 61.2578 20.5602 61.0625 21.5205C60.8672 22.4645 60.7695 23.4736 60.7695 24.5479ZM98.6846 32.2383V0.5H105.765V38H99.3926L98.6846 32.2383ZM81.9854 25.1094V24.5967C81.9854 22.5785 82.2132 20.7474 82.6689 19.1035C83.1247 17.4434 83.792 16.0192 84.6709 14.8311C85.5498 13.6429 86.6322 12.7233 87.918 12.0723C89.2038 11.4212 90.6686 11.0957 92.3125 11.0957C93.8587 11.0957 95.2096 11.4212 96.3652 12.0723C97.5371 12.7233 98.5299 13.651 99.3438 14.8555C100.174 16.0436 100.841 17.4515 101.346 19.0791C101.85 20.6904 102.216 22.4564 102.444 24.377V25.5C102.216 27.3392 101.85 29.0482 101.346 30.627C100.841 32.2057 100.174 33.5892 99.3438 34.7773C98.5299 35.9492 97.5371 36.8607 96.3652 37.5117C95.1934 38.1628 93.8262 38.4883 92.2637 38.4883C90.6198 38.4883 89.1549 38.1546 87.8691 37.4873C86.5996 36.82 85.5254 35.8841 84.6465 34.6797C83.7839 33.4753 83.1247 32.0592 82.6689 30.4316C82.2132 28.804 81.9854 27.0299 81.9854 25.1094ZM89.0166 24.5967V25.1094C89.0166 26.1999 89.098 27.2171 89.2607 28.1611C89.4398 29.1051 89.7246 29.9434 90.1152 30.6758C90.5221 31.3919 91.043 31.9535 91.6777 32.3604C92.3288 32.751 93.1182 32.9463 94.0459 32.9463C95.2503 32.9463 96.2432 32.6777 97.0244 32.1406C97.8057 31.5872 98.3997 30.8304 98.8066 29.8701C99.2298 28.9098 99.474 27.8031 99.5391 26.5498V23.3516C99.4902 22.3262 99.3438 21.4066 99.0996 20.5928C98.8717 19.7627 98.5299 19.0547 98.0742 18.4688C97.6348 17.8828 97.0814 17.4271 96.4141 17.1016C95.763 16.776 94.9899 16.6133 94.0947 16.6133C93.1833 16.6133 92.402 16.8249 91.751 17.248C91.0999 17.6549 90.571 18.2165 90.1641 18.9326C89.7734 19.6488 89.4805 20.4951 89.2852 21.4717C89.1061 22.432 89.0166 23.4736 89.0166 24.5967Z" fill="#FF7A00"/>
<path d="M118.118 0.5V38H111.087V0.5H118.118ZM117.117 23.8643H115.188C115.205 22.0251 115.449 20.3324 115.921 18.7861C116.393 17.2236 117.068 15.8727 117.947 14.7334C118.826 13.5778 119.876 12.6826 121.097 12.0479C122.334 11.4131 123.701 11.0957 125.198 11.0957C126.5 11.0957 127.68 11.2829 128.738 11.6572C129.812 12.0153 130.732 12.6012 131.497 13.415C132.278 14.2126 132.881 15.2624 133.304 16.5645C133.727 17.8665 133.938 19.4453 133.938 21.3008V38H126.858V21.252C126.858 20.0801 126.688 19.1605 126.346 18.4932C126.02 17.8096 125.54 17.3294 124.905 17.0527C124.287 16.7598 123.522 16.6133 122.61 16.6133C121.601 16.6133 120.739 16.8005 120.022 17.1748C119.323 17.5492 118.761 18.07 118.338 18.7373C117.915 19.3883 117.605 20.1533 117.41 21.0322C117.215 21.9111 117.117 22.8551 117.117 23.8643ZM154.91 31.6768V11.584H161.941V38H155.325L154.91 31.6768ZM155.691 26.2568L157.767 26.208C157.767 27.9658 157.563 29.6016 157.156 31.1152C156.749 32.6126 156.139 33.9147 155.325 35.0215C154.511 36.112 153.486 36.9665 152.249 37.585C151.012 38.1872 149.555 38.4883 147.879 38.4883C146.593 38.4883 145.405 38.3092 144.314 37.9512C143.24 37.5768 142.312 36.999 141.531 36.2178C140.766 35.4202 140.164 34.403 139.725 33.166C139.301 31.9128 139.09 30.4072 139.09 28.6494V11.584H146.121V28.6982C146.121 29.4795 146.211 30.1387 146.39 30.6758C146.585 31.2129 146.854 31.6523 147.195 31.9941C147.537 32.3359 147.936 32.5801 148.392 32.7266C148.864 32.873 149.384 32.9463 149.954 32.9463C151.403 32.9463 152.542 32.6533 153.372 32.0674C154.218 31.4814 154.812 30.6839 155.154 29.6748C155.512 28.6494 155.691 27.5101 155.691 26.2568ZM167.312 0.5H174.344V31.9453L173.636 38H167.312V0.5ZM191.067 24.5234V25.0361C191.067 27.0055 190.856 28.8122 190.433 30.4561C190.026 32.0999 189.391 33.5241 188.528 34.7285C187.666 35.9167 186.591 36.8444 185.306 37.5117C184.036 38.1628 182.539 38.4883 180.813 38.4883C179.202 38.4883 177.802 38.1628 176.614 37.5117C175.442 36.8607 174.458 35.9411 173.66 34.7529C172.863 33.5648 172.22 32.1732 171.731 30.5781C171.243 28.9831 170.877 27.2415 170.633 25.3535V24.2305C170.877 22.3424 171.243 20.6009 171.731 19.0059C172.22 17.4108 172.863 16.0192 173.66 14.8311C174.458 13.6429 175.442 12.7233 176.614 12.0723C177.786 11.4212 179.17 11.0957 180.765 11.0957C182.506 11.0957 184.02 11.4294 185.306 12.0967C186.608 12.7477 187.682 13.6755 188.528 14.8799C189.391 16.068 190.026 17.484 190.433 19.1279C190.856 20.7555 191.067 22.554 191.067 24.5234ZM184.036 25.0361V24.5234C184.036 23.4492 183.955 22.4401 183.792 21.4961C183.646 20.5358 183.385 19.6976 183.011 18.9814C182.636 18.249 182.124 17.6712 181.473 17.248C180.838 16.8249 180.016 16.6133 179.007 16.6133C178.047 16.6133 177.233 16.776 176.565 17.1016C175.898 17.4271 175.345 17.8828 174.905 18.4688C174.482 19.0547 174.165 19.7546 173.953 20.5684C173.742 21.3659 173.611 22.2448 173.562 23.2051V26.4033C173.611 27.6891 173.823 28.8285 174.197 29.8213C174.588 30.7979 175.174 31.571 175.955 32.1406C176.753 32.694 177.786 32.9707 179.056 32.9707C180.049 32.9707 180.87 32.7754 181.521 32.3848C182.173 31.9941 182.677 31.4408 183.035 30.7246C183.41 30.0085 183.67 29.1702 183.816 28.21C183.963 27.2334 184.036 26.1755 184.036 25.0361Z" fill="#202020"/>
</svg>
