<svg width="32" height="32" viewBox="0 0 32 32" fill="none" xmlns="http://www.w3.org/2000/svg">
<circle cx="16" cy="16" r="16" fill="#FF7A00"/>
<path d="M16 9.33337C15.3407 9.33337 14.6963 9.52887 14.1481 9.89514C13.5999 10.2614 13.1727 10.782 12.9204 11.3911C12.6681 12.0002 12.6021 12.6704 12.7307 13.317C12.8593 13.9636 13.1768 14.5576 13.643 15.0237C14.1092 15.4899 14.7031 15.8074 15.3497 15.936C15.9963 16.0646 16.6665 15.9986 17.2756 15.7463C17.8847 15.494 18.4053 15.0668 18.7716 14.5186C19.1378 13.9704 19.3333 13.326 19.3333 12.6667C19.3333 11.7827 18.9821 10.9348 18.357 10.3097C17.7319 9.68456 16.8841 9.33337 16 9.33337ZM16 14.6667C15.6044 14.6667 15.2178 14.5494 14.8889 14.3296C14.56 14.1099 14.3036 13.7975 14.1522 13.4321C14.0009 13.0666 13.9613 12.6645 14.0384 12.2765C14.1156 11.8886 14.3061 11.5322 14.5858 11.2525C14.8655 10.9728 15.2219 10.7823 15.6098 10.7051C15.9978 10.628 16.3999 10.6676 16.7654 10.8189C17.1308 10.9703 17.4432 11.2267 17.6629 11.5556C17.8827 11.8845 18 12.2711 18 12.6667C18 13.1971 17.7893 13.7058 17.4142 14.0809C17.0391 14.456 16.5304 14.6667 16 14.6667ZM22 22V21.3334C22 20.0957 21.5083 18.9087 20.6332 18.0335C19.758 17.1584 18.571 16.6667 17.3333 16.6667H14.6667C13.429 16.6667 12.242 17.1584 11.3668 18.0335C10.4917 18.9087 10 20.0957 10 21.3334V22H11.3333V21.3334C11.3333 20.4493 11.6845 19.6015 12.3096 18.9764C12.9348 18.3512 13.7826 18 14.6667 18H17.3333C18.2174 18 19.0652 18.3512 19.6904 18.9764C20.3155 19.6015 20.6667 20.4493 20.6667 21.3334V22H22Z" fill="white"/>
</svg>
