<svg width="135" height="790" viewBox="0 0 135 790" fill="none" xmlns="http://www.w3.org/2000/svg">
<path d="M69.0705 408.426C69.2487 408.215 69.2223 407.899 69.0114 407.721C68.8005 407.543 68.4851 407.569 68.3068 407.78L69.0705 408.426ZM100.508 789.233L100.508 789.733H101.008V789.233H100.508ZM25.1137 -23.5879C25.3002 -23.3842 25.6164 -23.3702 25.8201 -23.5567C26.0238 -23.7431 26.0378 -24.0594 25.8513 -24.2631L25.1137 -23.5879ZM27.8441 -22.0663C27.6595 -22.2717 27.3434 -22.2885 27.138 -22.1038C26.9326 -21.9192 26.9158 -21.6031 27.1005 -21.3977L27.8441 -22.0663ZM29.1043 -19.1489C29.2871 -18.9419 29.6031 -18.9224 29.8101 -19.1052C30.017 -19.288 30.0366 -19.6039 29.8538 -19.8109L29.1043 -19.1489ZM31.8672 -17.5113C31.6862 -17.7199 31.3704 -17.7422 31.1619 -17.5612C30.9534 -17.3801 30.931 -17.0643 31.1121 -16.8558L31.8672 -17.5113ZM33.031 -14.6269C33.2103 -14.4169 33.5259 -14.392 33.7359 -14.5714C33.9459 -14.7507 33.9708 -15.0663 33.7914 -15.2763L33.031 -14.6269ZM35.7273 -12.9909C35.5496 -13.2023 35.2343 -13.2297 35.0228 -13.0521C34.8114 -12.8744 34.784 -12.559 34.9617 -12.3476L35.7273 -12.9909ZM36.903 -10.0185C37.079 -9.8057 37.3942 -9.77583 37.607 -9.9518C37.8198 -10.1278 37.8497 -10.4429 37.6737 -10.6558L36.903 -10.0185ZM39.5805 -8.33168C39.4061 -8.54583 39.0912 -8.5781 38.8771 -8.40376C38.6629 -8.22942 38.6306 -7.91448 38.805 -7.70034L39.5805 -8.33168ZM40.6668 -5.39607C40.8395 -5.18064 41.1542 -5.14605 41.3697 -5.3188C41.5851 -5.49156 41.6197 -5.80625 41.4469 -6.02168L40.6668 -5.39607ZM43.32 -3.66827C43.1488 -3.88497 42.8344 -3.92187 42.6177 -3.7507C42.401 -3.57952 42.3641 -3.2651 42.5353 -3.04841L43.32 -3.66827ZM44.4095 -0.657871C44.579 -0.439936 44.8932 -0.400742 45.1111 -0.570327C45.3291 -0.739912 45.3683 -1.05406 45.1987 -1.27199L44.4095 -0.657871ZM47.023 1.08967C46.855 0.870551 46.5411 0.829146 46.322 0.997192C46.1029 1.16524 46.0615 1.4791 46.2295 1.69823L47.023 1.08967ZM48.03 4.06293C48.1966 4.28321 48.5101 4.32679 48.7304 4.16027C48.9507 3.99374 48.9943 3.68018 48.8277 3.45989L48.03 4.06293ZM50.6351 5.86798C50.4701 5.64655 50.1568 5.6008 49.9354 5.7658C49.714 5.9308 49.6682 6.24406 49.8332 6.46548L50.6351 5.86798ZM51.6382 8.90544C51.8017 9.128 52.1146 9.17591 52.3372 9.01245C52.5598 8.84898 52.6077 8.53605 52.4442 8.31348L51.6382 8.90544ZM54.2017 10.7232C54.0397 10.4996 53.7271 10.4496 53.5034 10.6116C53.2798 10.7735 53.2298 11.0861 53.3917 11.3098L54.2017 10.7232ZM55.1287 13.7251C55.2892 13.9498 55.6015 14.0019 55.8262 13.8414C56.0509 13.6809 56.103 13.3687 55.9425 13.144L55.1287 13.7251ZM57.6828 15.5981C57.5238 15.3723 57.2118 15.3181 56.9861 15.4771C56.7603 15.6361 56.7061 15.948 56.8651 16.1738L57.6828 15.5981ZM58.6002 18.6554C58.7577 18.8823 59.0693 18.9385 59.2961 18.781C59.5229 18.6236 59.5792 18.312 59.4217 18.0852L58.6002 18.6554ZM61.1211 20.5502C60.9651 20.3223 60.6539 20.2641 60.4261 20.42C60.1982 20.576 60.1399 20.8872 60.2959 21.1151L61.1211 20.5502ZM61.9681 23.5745C62.1226 23.8034 62.4334 23.8637 62.6623 23.7091C62.8911 23.5546 62.9514 23.2438 62.7969 23.015L61.9681 23.5745ZM64.4694 25.5095C64.3163 25.2796 64.0059 25.2174 63.7761 25.3704C63.5462 25.5234 63.484 25.8338 63.637 26.0637L64.4694 25.5095ZM65.302 28.5822C65.4535 28.813 65.7635 28.8773 65.9944 28.7258C66.2252 28.5742 66.2895 28.2642 66.138 28.0334L65.302 28.5822ZM67.7833 30.5576C67.6333 30.3257 67.3237 30.2594 67.0919 30.4095C66.8601 30.5595 66.7938 30.8691 66.9438 31.1009L67.7833 30.5576ZM68.5503 33.6003C68.6989 33.8331 69.008 33.9013 69.2408 33.7528C69.4736 33.6042 69.5418 33.2951 69.3932 33.0623L68.5503 33.6003ZM70.9976 35.5937C70.8505 35.36 70.5418 35.2897 70.3081 35.4368C70.0744 35.5839 70.0042 35.8926 70.1512 36.1263L70.9976 35.5937ZM71.746 38.6786C71.8916 38.9133 72.1998 38.9855 72.4345 38.8399C72.6691 38.6943 72.7413 38.3861 72.5958 38.1514L71.746 38.6786ZM74.1872 40.7352C74.0431 40.4996 73.7353 40.4254 73.4997 40.5694C73.2642 40.7135 73.19 41.0213 73.334 41.2569L74.1872 40.7352ZM74.8745 43.7942C75.0171 44.0307 75.3243 44.1068 75.5608 43.9642C75.7973 43.8217 75.8735 43.5144 75.7309 43.2779L74.8745 43.7942ZM77.2667 45.844C77.1256 45.6066 76.8188 45.5285 76.5814 45.6695C76.344 45.8106 76.2659 46.1174 76.407 46.3548L77.2667 45.844ZM77.9313 48.9392C78.0708 49.1775 78.3771 49.2575 78.6154 49.118C78.8537 48.9785 78.9338 48.6722 78.7943 48.4339L77.9313 48.9392ZM80.3131 51.0472C80.1751 50.808 79.8694 50.726 79.6302 50.864C79.391 51.002 79.3089 51.3077 79.4469 51.5469L80.3131 51.0472ZM80.9371 54.1493C81.0735 54.3894 81.3788 54.4734 81.6188 54.3369C81.8589 54.2005 81.9429 53.8953 81.8065 53.6552L80.9371 54.1493ZM83.2729 56.2547C83.138 56.0138 82.8333 55.9278 82.5924 56.0627C82.3515 56.1976 82.2655 56.5023 82.4004 56.7433L83.2729 56.2547ZM83.8538 59.3587C83.9872 59.6005 84.2913 59.6885 84.5331 59.5551C84.7749 59.4218 84.8628 59.1176 84.7295 58.8758L83.8538 59.3587ZM86.1755 61.5182C86.0438 61.2756 85.7402 61.1857 85.4975 61.3174C85.2549 61.4492 85.165 61.7528 85.2968 61.9955L86.1755 61.5182ZM86.7287 64.6531C86.8589 64.8966 87.1619 64.9885 87.4054 64.8583C87.6489 64.7282 87.7408 64.4252 87.6106 64.1817L86.7287 64.6531ZM89.0103 66.8205C88.8817 66.5761 88.5793 66.4822 88.335 66.6109C88.0906 66.7395 87.9968 67.0418 88.1254 67.2862L89.0103 66.8205ZM89.507 69.9323C89.634 70.1775 89.9357 70.2734 90.1809 70.1464C90.4261 70.0194 90.5219 69.7176 90.3949 69.4724L89.507 69.9323ZM91.7674 72.1438C91.6421 71.8978 91.341 71.8 91.0949 71.9253C90.8489 72.0507 90.7511 72.3518 90.8765 72.5979L91.7674 72.1438ZM92.2335 75.2825C92.3572 75.5293 92.6576 75.6291 92.9045 75.5054C93.1514 75.3816 93.2512 75.0812 93.1274 74.8343L92.2335 75.2825ZM94.4705 77.5359C94.3484 77.2882 94.0486 77.1864 93.8009 77.3085C93.5532 77.4306 93.4514 77.7304 93.5735 77.9781L94.4705 77.5359ZM94.882 80.6548C95.0025 80.9033 95.3016 81.0071 95.5501 80.8866C95.7985 80.7662 95.9023 80.4671 95.7819 80.2186L94.882 80.6548ZM97.0797 82.9191C96.9609 82.6698 96.6626 82.564 96.4133 82.6828C96.164 82.8015 96.0582 83.0999 96.177 83.3492L97.0797 82.9191ZM97.4578 86.061C97.5749 86.3111 97.8726 86.419 98.1227 86.3019C98.3728 86.1848 98.4806 85.8871 98.3635 85.637L97.4578 86.061ZM99.6327 88.3722C99.5173 88.1214 99.2204 88.0115 98.9695 88.1269C98.7186 88.2423 98.6088 88.5392 98.7242 88.7901L99.6327 88.3722ZM99.9686 91.5207C100.082 91.7723 100.378 91.8842 100.63 91.7706C100.882 91.6569 100.994 91.3608 100.88 91.1091L99.9686 91.5207ZM102.101 93.8388C101.989 93.5864 101.694 93.4725 101.442 93.5844C101.189 93.6963 101.075 93.9917 101.187 94.2441L102.101 93.8388ZM102.39 96.9835C102.501 97.2367 102.795 97.3527 103.048 97.2425C103.302 97.1324 103.418 96.8378 103.307 96.5846L102.39 96.9835ZM104.497 99.3461C104.389 99.0922 104.095 98.9741 103.841 99.0825C103.587 99.1909 103.469 99.4847 103.578 99.7386L104.497 99.3461ZM104.748 102.509C104.855 102.764 105.148 102.884 105.403 102.777C105.657 102.671 105.777 102.378 105.671 102.123L104.748 102.509ZM106.82 104.897C106.715 104.642 106.423 104.52 106.168 104.624C105.912 104.729 105.79 105.021 105.895 105.277L106.82 104.897ZM107.018 108.044C107.121 108.3 107.412 108.424 107.669 108.322C107.925 108.219 108.049 107.927 107.946 107.671L107.018 108.044ZM109.055 110.459C108.954 110.203 108.663 110.076 108.406 110.177C108.149 110.278 108.023 110.569 108.124 110.826L109.055 110.459ZM109.212 113.621C109.312 113.879 109.601 114.007 109.859 113.908C110.116 113.809 110.245 113.52 110.146 113.262L109.212 113.621ZM111.218 116.079C111.121 115.82 110.832 115.689 110.574 115.787C110.316 115.884 110.185 116.173 110.282 116.431L111.218 116.079ZM111.327 119.236C111.422 119.495 111.71 119.628 111.969 119.532C112.228 119.437 112.361 119.15 112.265 118.891L111.327 119.236ZM113.29 121.706C113.197 121.446 112.91 121.311 112.65 121.404C112.391 121.498 112.256 121.784 112.349 122.044L113.29 121.706ZM113.352 124.865C113.444 125.126 113.729 125.263 113.99 125.171C114.25 125.08 114.387 124.794 114.296 124.534L113.352 124.865ZM115.282 127.375C115.192 127.114 114.908 126.974 114.646 127.064C114.385 127.153 114.246 127.438 114.336 127.699L115.282 127.375ZM115.299 130.545C115.387 130.807 115.67 130.949 115.932 130.861C116.194 130.774 116.335 130.49 116.248 130.228L115.299 130.545ZM117.188 133.078C117.102 132.815 116.82 132.671 116.557 132.757C116.295 132.842 116.151 133.125 116.237 133.387L117.188 133.078ZM117.151 136.233C117.235 136.497 117.516 136.642 117.779 136.559C118.042 136.475 118.188 136.194 118.105 135.931L117.151 136.233ZM119.001 138.796C118.919 138.533 118.64 138.385 118.376 138.466C118.112 138.547 117.964 138.827 118.045 139.091L119.001 138.796ZM118.918 141.96C118.997 142.225 119.276 142.375 119.54 142.296C119.805 142.216 119.955 141.938 119.876 141.673L118.918 141.96ZM120.729 144.561C120.652 144.296 120.374 144.144 120.109 144.221C119.844 144.298 119.691 144.576 119.769 144.841L120.729 144.561ZM120.593 147.718C120.668 147.983 120.945 148.138 121.21 148.063C121.476 147.988 121.631 147.712 121.556 147.446L120.593 147.718ZM122.358 150.335C122.286 150.069 122.011 149.912 121.744 149.985C121.478 150.057 121.321 150.332 121.394 150.599L122.358 150.335ZM122.172 153.49C122.243 153.757 122.516 153.916 122.783 153.846C123.05 153.775 123.209 153.501 123.139 153.234L122.172 153.49ZM123.896 156.144C123.827 155.876 123.555 155.715 123.287 155.783C123.02 155.852 122.858 156.124 122.927 156.392L123.896 156.144ZM123.658 159.303C123.725 159.571 123.996 159.735 124.264 159.669C124.532 159.603 124.695 159.332 124.629 159.064L123.658 159.303ZM125.336 161.981C125.272 161.712 125.003 161.546 124.734 161.61C124.465 161.674 124.299 161.944 124.363 162.212L125.336 161.981ZM125.043 165.125C125.104 165.394 125.372 165.562 125.642 165.501C125.911 165.439 126.079 165.171 126.017 164.902L125.043 165.125ZM126.674 167.832C126.615 167.562 126.349 167.391 126.079 167.451C125.809 167.51 125.639 167.777 125.698 168.046L126.674 167.832ZM126.328 170.977C126.385 171.247 126.65 171.42 126.92 171.363C127.191 171.306 127.364 171.041 127.307 170.771L126.328 170.977ZM127.914 173.718C127.859 173.448 127.596 173.273 127.325 173.327C127.054 173.382 126.879 173.645 126.933 173.916L127.914 173.718ZM127.511 176.854C127.563 177.125 127.825 177.303 128.097 177.25C128.368 177.198 128.545 176.936 128.493 176.665L127.511 176.854ZM129.046 179.613C128.996 179.342 128.736 179.162 128.464 179.211C128.192 179.261 128.012 179.521 128.062 179.793L129.046 179.613ZM128.587 182.74C128.634 183.012 128.893 183.195 129.165 183.148C129.437 183.1 129.62 182.842 129.572 182.569L128.587 182.74ZM130.072 185.534C130.028 185.261 129.771 185.076 129.498 185.121C129.226 185.166 129.041 185.423 129.086 185.695L130.072 185.534ZM129.557 188.658C129.599 188.931 129.855 189.118 130.128 189.076C130.401 189.034 130.588 188.778 130.545 188.505L129.557 188.658ZM130.99 191.477C130.951 191.203 130.697 191.014 130.424 191.054C130.15 191.093 129.961 191.347 130.001 191.62L130.99 191.477ZM130.415 194.581C130.452 194.855 130.704 195.047 130.978 195.01C131.252 194.973 131.443 194.721 131.406 194.447L130.415 194.581ZM131.795 197.424C131.76 197.15 131.51 196.956 131.236 196.991C130.962 197.025 130.768 197.275 130.803 197.549L131.795 197.424ZM131.162 200.524C131.194 200.798 131.442 200.995 131.716 200.963C131.99 200.931 132.187 200.683 132.155 200.409L131.162 200.524ZM132.487 203.399C132.458 203.125 132.212 202.926 131.937 202.955C131.662 202.984 131.463 203.23 131.493 203.505L132.487 203.399ZM131.794 206.486C131.82 206.761 132.065 206.962 132.339 206.936C132.614 206.909 132.816 206.665 132.789 206.39L131.794 206.486ZM133.062 209.377C133.038 209.102 132.796 208.898 132.521 208.921C132.245 208.945 132.042 209.187 132.065 209.463L133.062 209.377ZM132.307 212.445C132.328 212.72 132.569 212.927 132.844 212.906C133.119 212.885 133.326 212.644 133.305 212.369L132.307 212.445ZM133.518 215.367C133.5 215.092 133.262 214.883 132.986 214.901C132.71 214.919 132.502 215.158 132.52 215.433L133.518 215.367ZM132.703 218.427C132.718 218.702 132.954 218.913 133.23 218.898C133.505 218.882 133.716 218.646 133.701 218.371L132.703 218.427ZM133.854 221.375C133.841 221.1 133.607 220.886 133.331 220.899C133.055 220.911 132.842 221.145 132.855 221.421L133.854 221.375ZM132.975 224.406C132.985 224.682 133.217 224.898 133.493 224.888C133.769 224.878 133.984 224.647 133.975 224.371L132.975 224.406ZM134.065 227.371C134.058 227.095 133.829 226.877 133.553 226.884C133.277 226.891 133.059 227.12 133.065 227.396L134.065 227.371ZM133.124 230.39C133.128 230.666 133.355 230.887 133.632 230.883C133.908 230.879 134.128 230.652 134.124 230.376L133.124 230.39ZM134.152 233.385C134.151 233.109 133.926 232.886 133.65 232.887C133.374 232.888 133.151 233.113 133.152 233.389L134.152 233.385ZM133.148 236.391C133.146 236.667 133.368 236.892 133.644 236.894C133.92 236.896 134.146 236.674 134.147 236.397L133.148 236.391ZM134.111 239.393C134.116 239.117 133.896 238.889 133.62 238.884C133.344 238.88 133.116 239.1 133.111 239.376L134.111 239.393ZM133.043 242.364C133.035 242.64 133.253 242.871 133.529 242.878C133.805 242.886 134.035 242.669 134.043 242.393L133.043 242.364ZM133.941 245.396C133.952 245.12 133.737 244.887 133.461 244.876C133.185 244.866 132.953 245.081 132.942 245.357L133.941 245.396ZM132.809 248.352C132.795 248.628 133.007 248.863 133.283 248.876C133.559 248.89 133.793 248.678 133.807 248.402L132.809 248.352ZM133.64 251.412C133.657 251.136 133.447 250.899 133.171 250.882C132.896 250.865 132.659 251.075 132.642 251.35L133.64 251.412ZM132.443 254.33C132.423 254.606 132.63 254.845 132.905 254.865C133.181 254.885 133.42 254.678 133.44 254.403L132.443 254.33ZM133.207 257.392C133.23 257.116 133.026 256.875 132.751 256.852C132.475 256.829 132.234 257.033 132.211 257.308L133.207 257.392ZM131.945 260.289C131.919 260.564 132.121 260.808 132.396 260.834C132.671 260.86 132.915 260.658 132.941 260.383L131.945 260.289ZM132.64 263.377C132.669 263.103 132.47 262.856 132.195 262.827C131.921 262.798 131.675 262.997 131.645 263.272L132.64 263.377ZM131.311 266.256C131.279 266.531 131.475 266.779 131.749 266.811C132.024 266.844 132.272 266.648 132.304 266.373L131.311 266.256ZM131.936 269.354C131.972 269.08 131.779 268.829 131.505 268.794C131.231 268.758 130.98 268.952 130.945 269.225L131.936 269.354ZM130.545 272.182C130.507 272.456 130.697 272.708 130.971 272.747C131.244 272.786 131.497 272.595 131.536 272.322L130.545 272.182ZM131.1 275.291C131.142 275.018 130.954 274.763 130.681 274.721C130.408 274.68 130.153 274.867 130.111 275.14L131.1 275.291ZM129.642 278.1C129.598 278.372 129.782 278.63 130.055 278.674C130.327 278.719 130.584 278.535 130.629 278.262L129.642 278.1ZM130.123 281.234C130.171 280.962 129.989 280.703 129.717 280.655C129.445 280.607 129.186 280.788 129.138 281.06L130.123 281.234ZM128.599 284.013C128.548 284.284 128.727 284.546 128.998 284.597C129.27 284.648 129.531 284.469 129.582 284.198L128.599 284.013ZM129.011 287.133C129.066 286.863 128.89 286.599 128.619 286.545C128.349 286.49 128.085 286.666 128.031 286.937L129.011 287.133ZM127.427 289.861C127.37 290.131 127.542 290.397 127.812 290.454C128.082 290.512 128.348 290.339 128.405 290.069L127.427 289.861ZM127.763 293.005C127.823 292.736 127.654 292.468 127.385 292.408C127.115 292.347 126.848 292.517 126.787 292.786L127.763 293.005ZM126.111 295.711C126.048 295.98 126.214 296.249 126.482 296.313C126.751 296.377 127.021 296.211 127.084 295.942L126.111 295.711ZM126.369 298.879C126.436 298.611 126.273 298.339 126.005 298.272C125.737 298.205 125.466 298.368 125.399 298.636L126.369 298.879ZM124.66 301.522C124.59 301.789 124.75 302.063 125.017 302.133C125.284 302.203 125.557 302.043 125.627 301.776L124.66 301.522ZM124.851 304.666C124.924 304.4 124.768 304.125 124.502 304.051C124.235 303.978 123.96 304.135 123.887 304.401L124.851 304.666ZM123.077 307.279C123.001 307.545 123.154 307.822 123.42 307.898C123.685 307.974 123.962 307.821 124.038 307.556L123.077 307.279ZM123.189 310.445C123.269 310.18 123.119 309.901 122.854 309.822C122.59 309.742 122.311 309.892 122.231 310.157L123.189 310.445ZM121.348 313.034C121.266 313.297 121.413 313.578 121.676 313.66C121.94 313.743 122.22 313.596 122.303 313.333L121.348 313.034ZM121.385 316.2C121.471 315.937 121.328 315.655 121.065 315.569C120.803 315.484 120.521 315.627 120.435 315.889L121.385 316.2ZM119.496 318.71C119.407 318.972 119.547 319.256 119.808 319.344C120.07 319.433 120.354 319.293 120.443 319.032L119.496 318.71ZM119.463 321.862C119.555 321.602 119.418 321.316 119.158 321.225C118.898 321.133 118.612 321.269 118.52 321.53L119.463 321.862ZM117.508 324.348C117.413 324.607 117.546 324.894 117.806 324.989C118.065 325.084 118.352 324.951 118.447 324.692L117.508 324.348ZM117.394 327.519C117.491 327.261 117.362 326.972 117.103 326.874C116.845 326.776 116.556 326.906 116.459 327.165L117.394 327.519ZM115.372 329.979C115.271 330.236 115.397 330.527 115.654 330.628C115.911 330.729 116.202 330.602 116.303 330.345L115.372 329.979ZM115.194 333.12C115.298 332.864 115.175 332.572 114.919 332.469C114.663 332.365 114.371 332.488 114.267 332.744L115.194 333.12ZM113.132 335.493C113.025 335.747 113.145 336.04 113.399 336.147C113.654 336.254 113.947 336.134 114.054 335.88L113.132 335.493ZM112.877 338.637C112.987 338.384 112.871 338.09 112.617 337.98C112.364 337.87 112.07 337.986 111.96 338.24L112.877 338.637ZM110.751 340.984C110.638 341.236 110.751 341.532 111.003 341.645C111.255 341.758 111.551 341.645 111.664 341.393L110.751 340.984ZM110.413 344.146C110.529 343.895 110.419 343.598 110.168 343.482C109.918 343.366 109.621 343.476 109.505 343.727L110.413 344.146ZM108.224 346.461C108.106 346.71 108.212 347.008 108.461 347.127C108.71 347.246 109.009 347.14 109.127 346.89L108.224 346.461ZM107.836 349.568C107.957 349.32 107.854 349.02 107.606 348.899C107.358 348.778 107.059 348.88 106.937 349.128L107.836 349.568ZM105.614 351.793C105.49 352.04 105.59 352.34 105.836 352.464C106.083 352.589 106.383 352.489 106.508 352.243L105.614 351.793ZM105.143 354.915C105.27 354.669 105.174 354.368 104.929 354.241C104.684 354.114 104.382 354.21 104.255 354.455L105.143 354.915ZM102.86 357.114C102.73 357.358 102.822 357.661 103.066 357.79C103.31 357.92 103.613 357.827 103.742 357.584L102.86 357.114ZM102.305 360.25C102.437 360.007 102.348 359.703 102.106 359.571C101.863 359.439 101.56 359.528 101.427 359.77L102.305 360.25ZM99.9672 362.405C99.832 362.646 99.9177 362.951 100.158 363.086C100.399 363.221 100.704 363.136 100.839 362.895L99.9672 362.405ZM99.3713 365.477C99.509 365.238 99.4267 364.932 99.1874 364.794C98.9481 364.657 98.6424 364.739 98.5046 364.978L99.3713 365.477ZM97.0066 367.548C96.8663 367.785 96.9452 368.092 97.183 368.232C97.4208 368.373 97.7274 368.294 97.8678 368.056L97.0066 367.548ZM96.3286 370.631C96.4715 370.395 96.3959 370.088 96.1596 369.945C95.9233 369.802 95.6159 369.877 95.473 370.114L96.3286 370.631ZM93.9034 372.676C93.7579 372.911 93.8302 373.219 94.0649 373.365C94.2996 373.51 94.6079 373.438 94.7534 373.203L93.9034 372.676ZM93.1419 375.771C93.29 375.538 93.221 375.229 92.9879 375.081C92.7548 374.933 92.4458 375.002 92.2978 375.235L93.1419 375.771ZM90.6661 377.774C90.5156 378.006 90.5813 378.315 90.8128 378.466C91.0443 378.617 91.354 378.551 91.5045 378.319L90.6661 377.774ZM89.8751 380.797C90.028 380.567 89.9656 380.257 89.7357 380.104C89.5058 379.951 89.1954 380.013 89.0425 380.243L89.8751 380.797ZM87.3843 382.708C87.229 382.937 87.2882 383.248 87.5165 383.403C87.7448 383.558 88.0558 383.499 88.2111 383.271L87.3843 382.708ZM86.5124 385.74C86.6701 385.514 86.6141 385.202 86.3874 385.044C86.1607 384.887 85.8491 384.943 85.6914 385.169L86.5124 385.74ZM83.9636 387.627C83.8037 387.852 83.8564 388.164 84.0815 388.324C84.3065 388.484 84.6187 388.431 84.7787 388.206L83.9636 387.627ZM83.0098 390.667C83.1721 390.444 83.1225 390.131 82.8991 389.969C82.6757 389.807 82.363 389.856 82.2007 390.08L83.0098 390.667ZM80.4024 392.529C80.2378 392.75 80.2842 393.063 80.5059 393.228C80.7276 393.393 81.0408 393.346 81.2054 393.125L80.4024 392.529ZM79.4288 395.494C79.5955 395.273 79.5523 394.96 79.3322 394.793C79.1121 394.626 78.7985 394.67 78.6317 394.89L79.4288 395.494ZM76.8302 397.243C76.6613 397.462 76.7015 397.776 76.9199 397.945C77.1384 398.114 77.4524 398.073 77.6213 397.855L76.8302 397.243ZM75.7803 400.212C75.9514 399.995 75.9143 399.681 75.6975 399.51C75.4807 399.339 75.1663 399.376 74.9952 399.593L75.7803 400.212ZM73.1266 401.938C72.9534 402.153 72.9875 402.468 73.2026 402.641C73.4177 402.814 73.7325 402.78 73.9056 402.565L73.1266 401.938ZM71.997 404.913C72.1722 404.699 72.1412 404.384 71.9278 404.209C71.7143 404.034 71.3993 404.065 71.2241 404.278L71.997 404.913ZM69.2875 406.614C69.1102 406.826 69.1382 407.141 69.3499 407.319C69.5617 407.496 69.877 407.468 70.0543 407.256L69.2875 406.614ZM67.3176 408.955C67.1402 409.167 67.1679 409.482 67.3796 409.66C67.5912 409.837 67.9065 409.809 68.0839 409.598L67.3176 408.955ZM66.1359 411.941C66.3116 411.728 66.2812 411.413 66.0681 411.238C65.855 411.062 65.5398 411.092 65.3642 411.305L66.1359 411.941ZM63.4442 413.655C63.2703 413.87 63.3034 414.185 63.518 414.359C63.7325 414.533 64.0474 414.499 64.2212 414.285L63.4442 413.655ZM62.3396 416.628C62.5115 416.412 62.4758 416.098 62.2598 415.926C62.0437 415.754 61.7292 415.789 61.5572 416.005L62.3396 416.628ZM59.7031 418.355C59.533 418.572 59.5714 418.887 59.7889 419.057C60.0064 419.227 60.3207 419.188 60.4908 418.971L59.7031 418.355ZM58.6747 421.313C58.843 421.094 58.8019 420.78 58.5829 420.612C58.364 420.444 58.0501 420.485 57.8818 420.704L58.6747 421.313ZM56.0874 423.06C55.921 423.281 55.9648 423.594 56.1852 423.76C56.4056 423.927 56.7192 423.883 56.8855 423.663L56.0874 423.06ZM55.0571 426.108C55.2215 425.886 55.1748 425.573 54.9529 425.409C54.731 425.244 54.4178 425.291 54.2535 425.513L55.0571 426.108ZM52.4547 427.965C52.2924 428.189 52.342 428.501 52.5654 428.664C52.7888 428.826 53.1015 428.776 53.2638 428.553L52.4547 427.965ZM51.5053 430.997C51.6655 430.772 51.6131 430.46 51.3882 430.3C51.1633 430.139 50.8511 430.192 50.6909 430.417L51.5053 430.997ZM48.9616 432.867C48.8035 433.094 48.8588 433.406 49.0852 433.564C49.3115 433.722 49.6232 433.667 49.7814 433.44L48.9616 432.867ZM48.0919 435.882C48.248 435.655 48.1898 435.343 47.962 435.187C47.7341 435.031 47.4229 435.089 47.2669 435.317L48.0919 435.882ZM45.6064 437.766C45.4525 437.995 45.5136 438.306 45.7429 438.46C45.9722 438.614 46.2828 438.553 46.4367 438.324L45.6064 437.766ZM44.7532 440.858C44.9048 440.628 44.8407 440.317 44.6099 440.166C44.3791 440.014 44.0691 440.078 43.9175 440.309L44.7532 440.858ZM42.2596 442.859C42.1102 443.092 42.1774 443.401 42.4096 443.55C42.6419 443.7 42.9513 443.633 43.1006 443.4L42.2596 442.859ZM41.4846 445.941C41.6316 445.707 41.5613 445.398 41.3276 445.251C41.0939 445.104 40.7852 445.175 40.6381 445.408L41.4846 445.941ZM39.053 447.956C38.9083 448.191 38.9816 448.499 39.2168 448.644C39.452 448.788 39.76 448.715 39.9047 448.48L39.053 447.956ZM38.3608 451.018C38.5031 450.781 38.4267 450.474 38.1901 450.331C37.9534 450.189 37.6462 450.265 37.5039 450.502L38.3608 451.018ZM35.9897 453.048C35.8498 453.286 35.9293 453.592 36.1674 453.732C36.4054 453.872 36.7118 453.793 36.8518 453.555L35.9897 453.048ZM35.3213 456.19C35.4587 455.95 35.376 455.645 35.1365 455.507C34.8969 455.37 34.5914 455.452 34.4539 455.692L35.3213 456.19ZM32.9563 458.334C32.8214 458.575 32.9074 458.88 33.1483 459.015C33.3893 459.15 33.6939 459.064 33.8288 458.823L32.9563 458.334ZM32.3742 461.454C32.5066 461.211 32.4174 460.907 32.175 460.775C31.9326 460.643 31.6289 460.732 31.4965 460.974L32.3742 461.454ZM30.0744 463.612C29.9447 463.856 30.0371 464.159 30.2809 464.289C30.5247 464.418 30.8274 464.326 30.9572 464.082L30.0744 463.612ZM29.5774 466.709C29.7045 466.463 29.6088 466.162 29.3637 466.035C29.1185 465.907 28.8168 466.003 28.6896 466.248L29.5774 466.709ZM27.3255 468.915C27.2011 469.161 27.3 469.462 27.5465 469.586C27.7931 469.711 28.0938 469.612 28.2182 469.365L27.3255 468.915ZM26.865 472.084C26.9867 471.836 26.8844 471.536 26.6365 471.415C26.3886 471.293 26.089 471.395 25.9673 471.643L26.865 472.084ZM24.6485 474.369C24.5296 474.618 24.6353 474.917 24.8845 475.035C25.1338 475.154 25.4322 475.049 25.5511 474.799L24.6485 474.369ZM24.276 477.512C24.392 477.262 24.283 476.964 24.0324 476.848C23.7818 476.732 23.4846 476.841 23.3686 477.092L24.276 477.512ZM22.1274 479.812C22.0142 480.064 22.1266 480.36 22.3785 480.473C22.6303 480.586 22.9263 480.474 23.0395 480.222L22.1274 479.812ZM21.8413 482.929C21.9516 482.676 21.8359 482.381 21.5827 482.271C21.3296 482.16 21.0349 482.276 20.9246 482.529L21.8413 482.929ZM19.7264 485.322C19.619 485.577 19.7383 485.87 19.9927 485.978C20.2471 486.085 20.5404 485.966 20.6477 485.711L19.7264 485.322ZM19.4888 488.503C19.5932 488.248 19.4705 487.956 19.2149 487.851C18.9592 487.747 18.6673 487.87 18.563 488.125L19.4888 488.503ZM17.4396 490.924C17.3383 491.181 17.4644 491.472 17.7213 491.573C17.9781 491.674 18.2685 491.548 18.3699 491.291L17.4396 490.924ZM17.2905 494.076C17.3888 493.818 17.2593 493.529 17.0012 493.431C16.7431 493.332 16.4543 493.462 16.356 493.72L17.2905 494.076ZM15.3118 496.512C15.2166 496.771 15.3495 497.058 15.6087 497.153C15.8679 497.249 16.1552 497.116 16.2504 496.856L15.3118 496.512ZM15.2322 499.681C15.3243 499.421 15.1878 499.135 14.9275 499.043C14.6672 498.951 14.3815 499.088 14.2894 499.348L15.2322 499.681ZM13.2944 502.218C13.2055 502.479 13.3455 502.763 13.6069 502.852C13.8684 502.941 14.1524 502.801 14.2412 502.539L13.2944 502.218ZM13.2909 505.393C13.3765 505.13 13.2332 504.848 12.9706 504.762C12.7081 504.677 12.4259 504.82 12.3402 505.083L13.2909 505.393ZM11.4265 507.943C11.3441 508.207 11.4909 508.487 11.7545 508.57C12.018 508.652 12.2985 508.505 12.3809 508.242L11.4265 507.943ZM11.5108 511.086C11.59 510.821 11.4397 510.542 11.1751 510.463C10.9106 510.384 10.632 510.534 10.5528 510.799L11.5108 511.086ZM9.70915 513.684C9.6333 513.949 9.78705 514.226 10.0526 514.302C10.3181 514.378 10.5948 514.224 10.6707 513.958L9.70915 513.684ZM9.8584 516.871C9.93089 516.605 9.77365 516.33 9.50719 516.257C9.24074 516.185 8.96596 516.342 8.89347 516.609L9.8584 516.871ZM8.11896 519.528C8.04984 519.795 8.21054 520.068 8.47789 520.137C8.74524 520.206 9.01801 520.046 9.08713 519.778L8.11896 519.528ZM8.35648 522.68C8.42222 522.412 8.25809 522.141 7.98988 522.075C7.72168 522.009 7.45097 522.174 7.38523 522.442L8.35648 522.68ZM6.69189 525.35C6.62954 525.619 6.79708 525.888 7.06609 525.95C7.3351 526.012 7.60372 525.845 7.66606 525.576L6.69189 525.35ZM7.00875 528.496C7.06766 528.227 6.89672 527.96 6.62693 527.901C6.35715 527.842 6.09068 528.013 6.03177 528.283L7.00875 528.496ZM5.40371 531.251C5.34828 531.521 5.52265 531.785 5.79317 531.841C6.06369 531.896 6.32793 531.722 6.38336 531.451L5.40371 531.251ZM5.79895 534.4C5.85089 534.129 5.67313 533.867 5.40192 533.815C5.1307 533.763 4.86874 533.941 4.8168 534.212L5.79895 534.4ZM4.27061 537.167C4.22216 537.438 4.40327 537.698 4.67512 537.746C4.94698 537.795 5.20665 537.614 5.2551 537.342L4.27061 537.167ZM4.75137 540.277C4.79634 540.005 4.61192 539.747 4.33946 539.702C4.067 539.657 3.80968 539.842 3.76472 540.114L4.75137 540.277ZM3.29329 543.091C3.25186 543.364 3.43959 543.619 3.71261 543.66C3.98562 543.701 4.24053 543.514 4.28197 543.241L3.29329 543.091ZM3.84883 546.225C3.88671 545.952 3.69567 545.7 3.42214 545.662C3.14861 545.624 2.89616 545.815 2.85829 546.088L3.84883 546.225ZM2.46402 549.078C2.4297 549.352 2.62399 549.602 2.898 549.637C3.172 549.671 3.42194 549.477 3.45626 549.203L2.46402 549.078ZM3.1038 552.172C3.13457 551.898 2.93706 551.65 2.66264 551.619C2.38822 551.589 2.1408 551.786 2.11003 552.061L3.1038 552.172ZM1.79586 555.035C1.76862 555.31 1.96931 555.554 2.24411 555.582C2.5189 555.609 2.76375 555.408 2.79099 555.133L1.79586 555.035ZM2.51354 558.131C2.5372 557.856 2.33334 557.614 2.05822 557.59C1.78309 557.567 1.54088 557.77 1.51722 558.046L2.51354 558.131ZM1.27776 561.06C1.25768 561.336 1.46467 561.575 1.74009 561.595C2.0155 561.615 2.25504 561.408 2.27511 561.133L1.27776 561.06ZM2.07645 564.126C2.09295 563.85 1.88287 563.613 1.60723 563.597C1.33158 563.58 1.09474 563.79 1.07823 564.066L2.07645 564.126ZM0.918166 567.063C0.905214 567.338 1.11833 567.573 1.39416 567.586C1.67 567.598 1.90411 567.385 1.91707 567.11L0.918166 567.063ZM1.79632 570.089C1.80573 569.813 1.58963 569.582 1.31365 569.572C1.03767 569.563 0.806311 569.779 0.796901 570.055L1.79632 570.089ZM0.713293 573.084C0.70746 573.36 0.92654 573.588 1.20262 573.594C1.4787 573.6 1.70724 573.381 1.71307 573.105L0.713293 573.084ZM1.66895 576.111C1.67122 575.834 1.44922 575.609 1.17309 575.606C0.896952 575.604 0.671258 575.826 0.668983 576.102L1.66895 576.111ZM0.663465 579.111C0.664725 579.387 0.889602 579.61 1.16574 579.609C1.44188 579.607 1.66471 579.382 1.66345 579.106L0.663465 579.111ZM1.69608 582.092C1.69131 581.816 1.46361 581.596 1.18751 581.601C0.911413 581.605 0.691457 581.833 0.69623 582.109L1.69608 582.092ZM0.767436 585.119C0.775722 585.395 1.0062 585.612 1.28221 585.604C1.55823 585.596 1.77527 585.365 1.76699 585.089L0.767436 585.119ZM1.87651 588.098C1.86471 587.822 1.63149 587.608 1.3556 587.62C1.07971 587.632 0.86562 587.865 0.87742 588.141L1.87651 588.098ZM1.02526 591.151C1.04055 591.427 1.27645 591.638 1.55217 591.623C1.82789 591.608 2.03901 591.372 2.02373 591.096L1.02526 591.151ZM2.20812 594.083C2.18938 593.807 1.95084 593.599 1.67534 593.618C1.39983 593.636 1.19169 593.875 1.21043 594.15L2.20812 594.083ZM1.43239 597.138C1.45456 597.413 1.69567 597.618 1.97092 597.596C2.24617 597.574 2.45133 597.333 2.42916 597.058L1.43239 597.138ZM2.68987 600.059C2.66426 599.784 2.4206 599.582 2.14565 599.608C1.8707 599.633 1.66857 599.877 1.69418 600.152L2.68987 600.059ZM1.99279 603.155C2.02182 603.43 2.26796 603.629 2.54257 603.6C2.81719 603.571 3.01628 603.325 2.98725 603.05L1.99279 603.155ZM3.32063 606.029C3.28823 605.755 3.03965 605.559 2.76541 605.591C2.49118 605.623 2.29513 605.872 2.32754 606.146L3.32063 606.029ZM2.69786 609.124C2.73361 609.398 2.98456 609.591 3.25838 609.555C3.53219 609.52 3.72519 609.269 3.68945 608.995L2.69786 609.124ZM4.09568 611.966C4.05661 611.692 3.80332 611.502 3.52996 611.542C3.2566 611.581 3.06667 611.834 3.10574 612.107L4.09568 611.966ZM3.55139 615.095C3.59378 615.368 3.84934 615.555 4.12221 615.513C4.39508 615.47 4.58192 615.215 4.53954 614.942L3.55139 615.095ZM5.01802 617.905C4.97236 617.632 4.71457 617.449 4.44223 617.494C4.16988 617.54 3.98613 617.798 4.03179 618.07L5.01802 617.905ZM4.54636 621.031C4.59527 621.303 4.85523 621.483 5.12701 621.434C5.39878 621.385 5.57946 621.125 5.53056 620.854L4.54636 621.031ZM6.077 623.791C6.02489 623.52 5.76282 623.342 5.49164 623.394C5.22045 623.446 5.04286 623.708 5.09496 623.98L6.077 623.791ZM5.6831 626.946C5.7384 627.216 6.00256 627.391 6.2731 627.335C6.54365 627.28 6.71814 627.016 6.66283 626.745L5.6831 626.946ZM7.28176 629.685C7.22329 629.415 6.95711 629.244 6.68723 629.302C6.41735 629.361 6.24596 629.627 6.30443 629.897L7.28176 629.685ZM6.95837 632.833C7.01995 633.102 7.2881 633.271 7.55728 633.209C7.82647 633.148 7.99476 632.879 7.93318 632.61L6.95837 632.833ZM8.61651 635.52C8.55184 635.252 8.28178 635.086 8.01332 635.151C7.74486 635.216 7.57965 635.486 7.64432 635.754L8.61651 635.52ZM8.36741 638.682C8.43514 638.95 8.70707 639.112 8.97478 639.044C9.24249 638.977 9.4046 638.705 9.33686 638.437L8.36741 638.682ZM10.091 641.348C10.0203 641.081 9.74651 640.922 9.47959 640.993C9.21267 641.064 9.05366 641.337 9.12443 641.604L10.091 641.348ZM9.91235 644.51C9.98611 644.776 10.2616 644.932 10.5277 644.858C10.7938 644.785 10.9498 644.509 10.876 644.243L9.91235 644.51ZM11.6912 647.122C11.6145 646.856 11.3372 646.703 11.072 646.78C10.8067 646.857 10.6538 647.134 10.7306 647.399L11.6912 647.122ZM11.5821 650.284C11.6617 650.548 11.9406 650.698 12.2051 650.619C12.4695 650.539 12.6193 650.26 12.5396 649.996L11.5821 650.284ZM13.4236 652.873C13.341 652.609 13.0605 652.463 12.797 652.545C12.5335 652.628 12.3867 652.908 12.4693 653.172L13.4236 652.873ZM13.3856 656.042C13.471 656.305 13.7531 656.448 14.0157 656.363C14.2783 656.278 14.422 655.995 14.3365 655.733L13.3856 656.042ZM15.2779 658.575C15.1897 658.313 14.906 658.173 14.6443 658.261C14.3827 658.349 14.2421 658.633 14.3303 658.894L15.2779 658.575ZM15.304 661.732C15.395 661.993 15.6802 662.13 15.9409 662.039C16.2016 661.948 16.3392 661.663 16.2481 661.403L15.304 661.732ZM17.2564 664.242C17.1626 663.982 16.876 663.848 16.6163 663.941C16.3565 664.035 16.222 664.322 16.3158 664.582L17.2564 664.242ZM17.3548 667.412C17.4513 667.671 17.7393 667.802 17.998 667.706C18.2567 667.609 18.3882 667.321 18.2917 667.062L17.3548 667.412ZM19.3535 669.864C19.2543 669.606 18.9649 669.478 18.7072 669.577C18.4495 669.676 18.321 669.965 18.4203 670.223L19.3535 669.864ZM19.5116 673.015C19.6134 673.272 19.9041 673.397 20.1608 673.295C20.4174 673.193 20.5429 672.903 20.4411 672.646L19.5116 673.015ZM21.5664 675.44C21.4619 675.184 21.17 675.061 20.9144 675.166C20.6588 675.27 20.5363 675.562 20.6408 675.818L21.5664 675.44ZM21.7969 678.605C21.904 678.859 22.1971 678.979 22.4516 678.872C22.7062 678.765 22.8257 678.472 22.7186 678.217L21.7969 678.605ZM23.8952 680.974C23.7855 680.721 23.4912 680.604 23.2377 680.714C22.9843 680.823 22.8678 681.118 22.9774 681.371L23.8952 680.974ZM24.1818 684.117C24.294 684.369 24.5895 684.482 24.8418 684.37C25.0941 684.258 25.2077 683.963 25.0955 683.71L24.1818 684.117ZM26.3312 686.452C26.2165 686.201 25.9199 686.09 25.6687 686.205C25.4175 686.32 25.3069 686.616 25.4216 686.868L26.3312 686.452ZM26.6895 689.608C26.8067 689.858 27.1044 689.966 27.3544 689.849C27.6044 689.731 27.7121 689.434 27.5949 689.184L26.6895 689.608ZM28.881 691.893C28.7613 691.644 28.4626 691.539 28.2137 691.659C27.9648 691.778 27.86 692.077 27.9797 692.326L28.881 691.893ZM29.2916 695.021C29.4136 695.269 29.7133 695.371 29.9611 695.249C30.2088 695.127 30.3106 694.827 30.1886 694.579L29.2916 695.021ZM31.5296 697.268C31.4052 697.022 31.1044 696.923 30.8579 697.047C30.6114 697.172 30.5124 697.472 30.6369 697.719L31.5296 697.268ZM32.0115 700.41C32.1383 700.655 32.44 700.751 32.6853 700.624C32.9306 700.497 33.0266 700.196 32.8998 699.95L32.0115 700.41ZM34.2901 702.609C34.161 702.365 33.8584 702.271 33.6143 702.4C33.3703 702.53 33.2771 702.832 33.4062 703.076L34.2901 702.609ZM34.8203 705.719C34.9517 705.961 35.2552 706.052 35.498 705.92C35.7409 705.789 35.8312 705.485 35.6997 705.243L34.8203 705.719ZM37.1419 707.877C37.0081 707.635 36.7039 707.548 36.4623 707.682C36.2207 707.816 36.1332 708.12 36.2669 708.361L37.1419 707.877ZM37.7436 711C37.8796 711.24 38.1846 711.324 38.425 711.188C38.6653 711.052 38.7499 710.747 38.6139 710.507L37.7436 711ZM40.1035 713.111C39.9653 712.872 39.6595 712.79 39.4204 712.929C39.1814 713.067 39.0996 713.373 39.2379 713.612L40.1035 713.111ZM40.7491 716.197C40.8896 716.435 41.1961 716.514 41.4339 716.374C41.6717 716.233 41.7506 715.927 41.6101 715.689L40.7491 716.197ZM43.1503 718.269C43.0077 718.032 42.7004 717.956 42.4639 718.099C42.2275 718.242 42.1514 718.549 42.2941 718.785L43.1503 718.269ZM43.8682 721.368C44.013 721.603 44.321 721.676 44.5561 721.531C44.7912 721.387 44.8644 721.079 44.7196 720.843L43.8682 721.368ZM46.304 723.39C46.1571 723.156 45.8484 723.086 45.6146 723.233C45.3808 723.379 45.3105 723.688 45.4574 723.922L46.304 723.39ZM47.061 726.447C47.2101 726.68 47.5193 726.747 47.7518 726.598C47.9842 726.449 48.0518 726.14 47.9027 725.907L47.061 726.447ZM49.5396 728.434C49.3884 728.203 49.0785 728.138 48.8475 728.289C48.6164 728.441 48.5516 728.751 48.7029 728.982L49.5396 728.434ZM50.3702 731.504C50.5235 731.734 50.8339 731.796 51.0636 731.643C51.2933 731.489 51.3552 731.179 51.2019 730.949L50.3702 731.504ZM52.8765 733.433C52.7211 733.205 52.4101 733.146 52.1818 733.302C51.9535 733.457 51.8944 733.768 52.0498 733.996L52.8765 733.433ZM53.7409 736.457C53.8983 736.684 54.2098 736.74 54.4367 736.582C54.6636 736.425 54.7199 736.113 54.5624 735.887L53.7409 736.457ZM56.2969 738.362C56.1374 738.136 55.8254 738.083 55.5999 738.242C55.3745 738.402 55.3211 738.714 55.4806 738.939L56.2969 738.362ZM57.2368 741.398C57.3983 741.622 57.7108 741.672 57.9348 741.511C58.1587 741.349 58.2093 741.037 58.0478 740.813L57.2368 741.398ZM59.8078 743.23C59.6443 743.007 59.3313 742.959 59.1088 743.123C58.8863 743.286 58.8386 743.599 59.0021 743.822L59.8078 743.23ZM60.7831 746.222C60.9487 746.443 61.2621 746.488 61.4831 746.322C61.7041 746.157 61.749 745.843 61.5835 745.622L60.7831 746.222ZM63.4117 748.039C63.2441 747.82 62.9304 747.778 62.7109 747.945C62.4914 748.113 62.4494 748.427 62.617 748.646L63.4117 748.039ZM64.4575 751.033C64.6271 751.251 64.9412 751.291 65.1591 751.121C65.3771 750.951 65.4162 750.637 65.2466 750.419L64.4575 751.033ZM67.087 752.762C66.9154 752.545 66.6009 752.509 66.3846 752.681C66.1682 752.852 66.1319 753.167 66.3035 753.383L67.087 752.762ZM68.1875 755.736C68.3611 755.951 68.6759 755.984 68.8907 755.811C69.1054 755.637 69.1388 755.322 68.9652 755.108L68.1875 755.736ZM70.8761 757.449C70.7005 757.236 70.3854 757.206 70.1723 757.381C69.9592 757.557 69.9288 757.872 70.1044 758.085L70.8761 757.449ZM72.0238 760.392C72.2014 760.604 72.5167 760.631 72.7282 760.454C72.9397 760.276 72.9671 759.961 72.7895 759.749L72.0238 760.392ZM74.7075 762.012C74.5279 761.802 74.2123 761.777 74.0025 761.957C73.7927 762.136 73.7682 762.452 73.9478 762.662L74.7075 762.012ZM75.9428 764.97C76.1244 765.178 76.4402 765.199 76.6482 765.018C76.8563 764.836 76.8777 764.52 76.6961 764.312L75.9428 764.97ZM78.6836 766.567C78.5 766.361 78.184 766.342 77.9777 766.526C77.7714 766.71 77.7531 767.026 77.9367 767.232L78.6836 766.567ZM79.9282 769.447C80.1138 769.652 80.43 769.667 80.6345 769.482C80.839 769.296 80.8542 768.98 80.6686 768.775L79.9282 769.447ZM82.7093 771.001C82.5216 770.798 82.2053 770.786 82.0027 770.974C81.8001 771.161 81.788 771.478 81.9757 771.68L82.7093 771.001ZM84.0453 773.892C84.235 774.092 84.5515 774.101 84.7521 773.911C84.9528 773.722 84.9616 773.405 84.7719 773.205L84.0453 773.892ZM86.8275 775.356C86.6357 775.158 86.3192 775.152 86.1205 775.344C85.9218 775.536 85.9162 775.852 86.108 776.051L86.8275 775.356ZM88.21 778.205C88.4038 778.402 88.7204 778.404 88.9171 778.21C89.1137 778.016 89.1159 777.7 88.922 777.503L88.21 778.205ZM91.0605 779.648C90.8645 779.454 90.5479 779.455 90.3534 779.651C90.1589 779.847 90.1602 780.164 90.3562 780.358L91.0605 779.648ZM92.4898 782.452C92.6879 782.644 93.0045 782.639 93.1968 782.441C93.3891 782.243 93.3843 781.926 93.1861 781.734L92.4898 782.452ZM95.3452 783.805C95.1448 783.615 94.8284 783.623 94.6384 783.824C94.4484 784.024 94.4568 784.341 94.6572 784.531L95.3452 783.805ZM96.8798 786.613C97.0825 786.8 97.3988 786.788 97.5864 786.585C97.7739 786.383 97.7616 786.066 97.559 785.879L96.8798 786.613ZM99.7524 787.884C99.5474 787.698 99.2313 787.715 99.0462 787.92C98.8612 788.125 98.8773 788.441 99.0823 788.626L99.7524 787.884ZM100.008 753.996C100.008 754.272 100.232 754.496 100.508 754.496C100.785 754.496 101.008 754.272 101.008 753.996H100.008ZM101.008 757.06C101.008 756.784 100.785 756.56 100.508 756.56C100.232 756.56 100.008 756.784 100.008 757.06H101.008ZM100.008 760.124C100.008 760.4 100.232 760.624 100.508 760.624C100.785 760.624 101.008 760.4 101.008 760.124H100.008ZM101.008 763.188C101.008 762.912 100.785 762.688 100.508 762.688C100.232 762.688 100.008 762.912 100.008 763.188H101.008ZM100.008 766.252C100.008 766.529 100.232 766.752 100.508 766.752C100.785 766.752 101.008 766.529 101.008 766.252H100.008ZM101.008 769.317C101.008 769.04 100.785 768.817 100.508 768.817C100.232 768.817 100.008 769.04 100.008 769.317H101.008ZM100.008 772.381C100.008 772.657 100.232 772.881 100.508 772.881C100.785 772.881 101.008 772.657 101.008 772.381H100.008ZM101.008 775.445C101.008 775.169 100.785 774.945 100.508 774.945C100.232 774.945 100.008 775.169 100.008 775.445H101.008ZM100.008 778.509C100.008 778.785 100.232 779.009 100.508 779.009C100.785 779.009 101.008 778.785 101.008 778.509H100.008ZM101.008 781.573C101.008 781.297 100.785 781.073 100.508 781.073C100.232 781.073 100.008 781.297 100.008 781.573L101.008 781.573ZM100.008 784.637C100.008 784.913 100.232 785.137 100.508 785.137C100.785 785.137 101.008 784.913 101.008 784.637H100.008ZM101.008 787.701C101.008 787.425 100.785 787.201 100.508 787.201C100.232 787.201 100.008 787.425 100.008 787.701H101.008ZM98.9764 788.733C98.7002 788.733 98.4764 788.957 98.4764 789.233C98.4764 789.51 98.7002 789.733 98.9764 789.733L98.9764 788.733ZM95.9122 789.733C96.1884 789.733 96.4122 789.51 96.4122 789.233C96.4122 788.957 96.1884 788.733 95.9122 788.733L95.9122 789.733ZM92.8481 788.733C92.572 788.733 92.3481 788.957 92.3481 789.233C92.3481 789.51 92.572 789.733 92.8481 789.733L92.8481 788.733ZM89.784 789.733C90.0601 789.733 90.284 789.51 90.284 789.233C90.284 788.957 90.0601 788.733 89.784 788.733L89.784 789.733ZM86.7198 788.733C86.4437 788.733 86.2198 788.957 86.2198 789.233C86.2198 789.51 86.4437 789.733 86.7198 789.733L86.7198 788.733ZM83.6557 789.733C83.9319 789.733 84.1557 789.51 84.1557 789.233C84.1557 788.957 83.9319 788.733 83.6557 788.733L83.6557 789.733ZM80.5916 788.733C80.3154 788.733 80.0916 788.957 80.0916 789.233C80.0916 789.51 80.3154 789.733 80.5916 789.733L80.5916 788.733ZM77.5275 789.733C77.8036 789.733 78.0275 789.51 78.0275 789.233C78.0275 788.957 77.8036 788.733 77.5275 788.733L77.5275 789.733ZM74.4633 788.733C74.1872 788.733 73.9633 788.957 73.9633 789.233C73.9633 789.51 74.1872 789.733 74.4633 789.733L74.4633 788.733ZM71.3992 789.733C71.6753 789.733 71.8992 789.51 71.8992 789.233C71.8992 788.957 71.6753 788.733 71.3992 788.733L71.3992 789.733ZM68.3351 788.733C68.0589 788.733 67.8351 788.957 67.8351 789.233C67.8351 789.51 68.0589 789.733 68.3351 789.733L68.3351 788.733ZM65.2709 789.733C65.5471 789.733 65.7709 789.51 65.7709 789.233C65.7709 788.957 65.5471 788.733 65.2709 788.733L65.2709 789.733ZM24.1272 -24.6607C24.4552 -24.3056 24.7841 -23.948 25.1137 -23.5879L25.8513 -24.2631C25.5207 -24.6243 25.1908 -24.983 24.8617 -25.3393L24.1272 -24.6607ZM27.1005 -21.3977C27.7656 -20.6579 28.4337 -19.9082 29.1043 -19.1489L29.8538 -19.8109C29.1812 -20.5724 28.5113 -21.3242 27.8441 -22.0663L27.1005 -21.3977ZM31.1121 -16.8558C31.7496 -16.1213 32.3893 -15.3783 33.031 -14.6269L33.7914 -15.2763C33.148 -16.0297 32.5066 -16.7748 31.8672 -17.5113L31.1121 -16.8558ZM34.9617 -12.3476C35.6071 -11.5795 36.2543 -10.8031 36.903 -10.0185L37.6737 -10.6558C37.0233 -11.4424 36.3744 -12.2208 35.7273 -12.9909L34.9617 -12.3476ZM38.805 -7.70034C39.4244 -6.93954 40.045 -6.17142 40.6668 -5.39607L41.4469 -6.02168C40.8236 -6.79894 40.2014 -7.56897 39.5805 -8.33168L38.805 -7.70034ZM42.5353 -3.04841C43.1591 -2.25868 43.7839 -1.46181 44.4095 -0.657871L45.1987 -1.27199C44.5716 -2.07784 43.9453 -2.87663 43.32 -3.66827L42.5353 -3.04841ZM46.2295 1.69823C46.8292 2.4801 47.4294 3.26836 48.03 4.06293L48.8277 3.45989C48.2257 2.66349 47.6241 1.87339 47.023 1.08967L46.2295 1.69823ZM49.8332 6.46548C50.4346 7.27259 51.0363 8.08594 51.6382 8.90544L52.4442 8.31348C51.841 7.49213 51.2379 6.67693 50.6351 5.86798L49.8332 6.46548ZM53.3917 11.3098C53.9707 12.1093 54.5498 12.9144 55.1287 13.7251L55.9425 13.144C55.3623 12.3315 54.782 11.5245 54.2017 10.7232L53.3917 11.3098ZM56.8651 16.1738C57.4437 16.9955 58.0222 17.8228 58.6002 18.6554L59.4217 18.0852C58.8423 17.2507 58.2627 16.4216 57.6828 15.5981L56.8651 16.1738ZM60.2959 21.1151C60.8538 21.9299 61.4112 22.7498 61.9681 23.5745L62.7969 23.015C62.2388 22.1884 61.6802 21.3668 61.1211 20.5502L60.2959 21.1151ZM63.637 26.0637C64.1927 26.8983 64.7477 27.7378 65.302 28.5822L66.138 28.0334C65.5825 27.1872 65.0263 26.3459 64.4694 25.5095L63.637 26.0637ZM66.9438 31.1009C67.4802 31.9296 68.0157 32.7627 68.5503 33.6003L69.3932 33.0623C68.8575 32.2229 68.3208 31.388 67.7833 30.5576L66.9438 31.1009ZM70.1512 36.1263C70.6839 36.9727 71.2155 37.8235 71.746 38.6786L72.5958 38.1514C72.0641 37.2945 71.5314 36.4419 70.9976 35.5937L70.1512 36.1263ZM73.334 41.2569C73.8487 42.0986 74.3622 42.9444 74.8745 43.7942L75.7309 43.2779C75.2176 42.4263 74.7029 41.5787 74.1872 40.7352L73.334 41.2569ZM76.407 46.3548C76.9165 47.2123 77.4246 48.0738 77.9313 48.9392L78.7943 48.4339C78.2865 47.5667 77.7773 46.7033 77.2667 45.844L76.407 46.3548ZM79.4469 51.5469C79.9452 52.4106 80.4419 53.2781 80.9371 54.1493L81.8065 53.6552C81.3103 52.7821 80.8125 51.9128 80.3131 51.0472L79.4469 51.5469ZM82.4004 56.7433C82.8866 57.6115 83.3711 58.4834 83.8538 59.3587L84.7295 58.8758C84.2457 57.9986 83.7601 57.1248 83.2729 56.2547L82.4004 56.7433ZM85.2968 61.9955C85.7759 62.8779 86.2533 63.7638 86.7287 64.6531L87.6106 64.1817C87.1341 63.2904 86.6558 62.4026 86.1755 61.5182L85.2968 61.9955ZM88.1254 67.2862C88.5878 68.165 89.0484 69.0471 89.507 69.9323L90.3949 69.4724C89.9354 68.5852 89.4738 67.7012 89.0103 66.8205L88.1254 67.2862ZM90.8765 72.5979C91.3309 73.4896 91.7833 74.3844 92.2335 75.2825L93.1274 74.8343C92.6762 73.9343 92.2229 73.0375 91.7674 72.1438L90.8765 72.5979ZM93.5735 77.9781C94.0119 78.8673 94.4481 79.7596 94.882 80.6548L95.7819 80.2186C95.347 79.3214 94.9098 78.4272 94.4705 77.5359L93.5735 77.9781ZM96.177 83.3492C96.6063 84.2503 97.0333 85.1542 97.4578 86.061L98.3635 85.637C97.938 84.7282 97.51 83.8222 97.0797 82.9191L96.177 83.3492ZM98.7242 88.7901C99.1415 89.6975 99.5563 90.6077 99.9686 91.5207L100.88 91.1091C100.467 90.194 100.051 89.2817 99.6327 88.3722L98.7242 88.7901ZM101.187 94.2441C101.591 95.1546 101.992 96.0678 102.39 96.9835L103.307 96.5846C102.908 95.6667 102.506 94.7514 102.101 93.8388L101.187 94.2441ZM103.578 99.7386C103.971 100.66 104.361 101.583 104.748 102.509L105.671 102.123C105.283 101.195 104.891 100.269 104.497 99.3461L103.578 99.7386ZM105.895 105.277C106.272 106.197 106.647 107.119 107.018 108.044L107.946 107.671C107.574 106.744 107.198 105.82 106.82 104.897L105.895 105.277ZM108.124 110.826C108.49 111.755 108.853 112.687 109.212 113.621L110.146 113.262C109.785 112.325 109.421 111.391 109.055 110.459L108.124 110.826ZM110.282 116.431C110.634 117.364 110.982 118.299 111.327 119.236L112.265 118.891C111.919 117.951 111.57 117.014 111.218 116.079L110.282 116.431ZM112.349 122.044C112.687 122.982 113.021 123.923 113.352 124.865L114.296 124.534C113.964 123.589 113.628 122.646 113.29 121.706L112.349 122.044ZM114.336 127.699C114.66 128.646 114.981 129.595 115.299 130.545L116.248 130.228C115.929 129.275 115.607 128.324 115.282 127.375L114.336 127.699ZM116.237 133.387C116.545 134.334 116.85 135.283 117.151 136.233L118.105 135.931C117.802 134.978 117.497 134.027 117.188 133.078L116.237 133.387ZM118.045 139.091C118.34 140.046 118.631 141.002 118.918 141.96L119.876 141.673C119.588 140.712 119.296 139.753 119.001 138.796L118.045 139.091ZM119.769 144.841C120.047 145.798 120.322 146.757 120.593 147.718L121.556 147.446C121.284 146.483 121.008 145.521 120.729 144.561L119.769 144.841ZM121.394 150.599C121.657 151.561 121.916 152.525 122.172 153.49L123.139 153.234C122.882 152.266 122.622 151.3 122.358 150.335L121.394 150.599ZM122.927 156.392C123.175 157.361 123.418 158.331 123.658 159.303L124.629 159.064C124.389 158.089 124.144 157.116 123.896 156.144L122.927 156.392ZM124.363 162.212C124.594 163.182 124.82 164.153 125.043 165.125L126.017 164.902C125.794 163.927 125.567 162.953 125.336 161.981L124.363 162.212ZM125.698 168.046C125.912 169.022 126.122 169.998 126.328 170.977L127.307 170.771C127.1 169.79 126.889 168.81 126.674 167.832L125.698 168.046ZM126.933 173.916C127.13 174.894 127.323 175.873 127.511 176.854L128.493 176.665C128.304 175.682 128.111 174.699 127.914 173.718L126.933 173.916ZM128.062 179.793C128.241 180.774 128.416 181.757 128.587 182.74L129.572 182.569C129.401 181.583 129.226 180.597 129.046 179.613L128.062 179.793ZM129.086 185.695C129.247 186.682 129.404 187.669 129.557 188.658L130.545 188.505C130.392 187.513 130.235 186.523 130.072 185.534L129.086 185.695ZM130.001 191.62C130.143 192.606 130.282 193.593 130.415 194.581L131.406 194.447C131.272 193.456 131.134 192.466 130.99 191.477L130.001 191.62ZM130.803 197.549C130.927 198.539 131.047 199.531 131.162 200.524L132.155 200.409C132.04 199.413 131.92 198.418 131.795 197.424L130.803 197.549ZM131.493 203.505C131.598 204.497 131.698 205.491 131.794 206.486L132.789 206.39C132.693 205.392 132.593 204.395 132.487 203.399L131.493 203.505ZM132.065 209.463C132.151 210.456 132.232 211.45 132.307 212.445L133.305 212.369C133.229 211.371 133.148 210.373 133.062 209.377L132.065 209.463ZM132.52 215.433C132.586 216.43 132.647 217.428 132.703 218.427L133.701 218.371C133.645 217.369 133.584 216.368 133.518 215.367L132.52 215.433ZM132.855 221.421C132.9 222.415 132.94 223.41 132.975 224.406L133.975 224.371C133.939 223.372 133.899 222.373 133.854 221.375L132.855 221.421ZM133.065 227.396C133.09 228.393 133.11 229.391 133.124 230.39L134.124 230.376C134.11 229.373 134.09 228.372 134.065 227.371L133.065 227.396ZM133.152 233.389C133.156 234.389 133.154 235.389 133.148 236.391L134.147 236.397C134.154 235.393 134.156 234.388 134.152 233.385L133.152 233.389ZM133.111 239.376C133.094 240.371 133.071 241.368 133.043 242.364L134.043 242.393C134.071 241.392 134.094 240.392 134.111 239.393L133.111 239.376ZM132.942 245.357C132.903 246.354 132.859 247.353 132.809 248.352L133.807 248.402C133.858 247.399 133.902 246.397 133.941 245.396L132.942 245.357ZM132.642 251.35C132.581 252.343 132.515 253.337 132.443 254.33L133.44 254.403C133.512 253.405 133.579 252.408 133.64 251.412L132.642 251.35ZM132.211 257.308C132.128 258.302 132.039 259.295 131.945 260.289L132.941 260.383C133.035 259.386 133.124 258.388 133.207 257.392L132.211 257.308ZM131.645 263.272C131.54 264.266 131.428 265.261 131.311 266.256L132.304 266.373C132.422 265.374 132.534 264.376 132.64 263.377L131.645 263.272ZM130.945 269.225C130.817 270.211 130.684 271.196 130.545 272.182L131.536 272.322C131.675 271.332 131.809 270.343 131.936 269.354L130.945 269.225ZM130.111 275.14C129.961 276.127 129.805 277.113 129.642 278.1L130.629 278.262C130.792 277.272 130.949 276.281 131.1 275.291L130.111 275.14ZM129.138 281.06C128.964 282.044 128.785 283.029 128.599 284.013L129.582 284.198C129.768 283.21 129.948 282.222 130.123 281.234L129.138 281.06ZM128.031 286.937C127.836 287.911 127.634 288.886 127.427 289.861L128.405 290.069C128.613 289.09 128.815 288.112 129.011 287.133L128.031 286.937ZM126.787 292.786C126.568 293.761 126.343 294.736 126.111 295.711L127.084 295.942C127.317 294.963 127.543 293.984 127.763 293.005L126.787 292.786ZM125.399 298.636C125.159 299.598 124.912 300.56 124.66 301.522L125.627 301.776C125.881 300.81 126.128 299.844 126.369 298.879L125.399 298.636ZM123.887 304.401C123.623 305.36 123.353 306.32 123.077 307.279L124.038 307.556C124.315 306.592 124.586 305.629 124.851 304.666L123.887 304.401ZM122.231 310.157C121.943 311.116 121.649 312.075 121.348 313.034L122.303 313.333C122.604 312.37 122.9 311.407 123.189 310.445L122.231 310.157ZM120.435 315.889C120.128 316.83 119.815 317.77 119.496 318.71L120.443 319.032C120.763 318.088 121.077 317.144 121.385 316.2L120.435 315.889ZM118.52 321.53C118.189 322.469 117.851 323.409 117.508 324.348L118.447 324.692C118.792 323.749 119.131 322.806 119.463 321.862L118.52 321.53ZM116.459 327.165C116.103 328.103 115.74 329.041 115.372 329.979L116.303 330.345C116.673 329.403 117.036 328.461 117.394 327.519L116.459 327.165ZM114.267 332.744C113.895 333.66 113.516 334.577 113.132 335.493L114.054 335.88C114.44 334.96 114.82 334.04 115.194 333.12L114.267 332.744ZM111.96 338.24C111.563 339.155 111.16 340.07 110.751 340.984L111.664 341.393C112.074 340.475 112.479 339.556 112.877 338.637L111.96 338.24ZM109.505 343.727C109.084 344.638 108.657 345.55 108.224 346.461L109.127 346.89C109.562 345.976 109.991 345.061 110.413 344.146L109.505 343.727ZM106.937 349.128C106.502 350.017 106.061 350.905 105.614 351.793L106.508 352.243C106.956 351.352 107.399 350.46 107.836 349.568L106.937 349.128ZM104.255 354.455C103.796 355.342 103.331 356.228 102.86 357.114L103.742 357.584C104.215 356.695 104.682 355.805 105.143 354.915L104.255 354.455ZM101.427 359.77C100.947 360.649 100.46 361.527 99.9672 362.405L100.839 362.895C101.334 362.014 101.822 361.132 102.305 360.25L101.427 359.77ZM98.5046 364.978C98.0112 365.835 97.5119 366.692 97.0066 367.548L97.8678 368.056C98.3749 367.197 98.876 366.337 99.3713 365.477L98.5046 364.978ZM95.473 370.114C94.9558 370.969 94.4326 371.823 93.9034 372.676L94.7534 373.203C95.2845 372.347 95.8095 371.489 96.3286 370.631L95.473 370.114ZM92.2978 375.235C91.7599 376.082 91.216 376.929 90.6661 377.774L91.5045 378.319C92.0563 377.471 92.6021 376.621 93.1419 375.771L92.2978 375.235ZM89.0425 380.243C88.4955 381.065 87.9428 381.887 87.3843 382.708L88.2111 383.271C88.7716 382.447 89.3262 381.622 89.8751 380.797L89.0425 380.243ZM85.6914 385.169C85.1213 385.989 84.5454 386.808 83.9636 387.627L84.7787 388.206C85.3625 387.385 85.9404 386.563 86.5124 385.74L85.6914 385.169ZM82.2007 390.08C81.6072 390.897 81.0078 391.713 80.4024 392.529L81.2054 393.125C81.8128 392.306 82.4142 391.487 83.0098 390.667L82.2007 390.08ZM78.6317 394.89C78.0368 395.675 77.4363 396.459 76.8302 397.243L77.6213 397.855C78.2294 397.069 78.8319 396.281 79.4288 395.494L78.6317 394.89ZM74.9952 399.593C74.378 400.375 73.7551 401.157 73.1266 401.938L73.9056 402.565C74.5362 401.781 75.1611 400.997 75.7803 400.212L74.9952 399.593ZM71.2241 404.278C70.5842 405.058 69.9387 405.836 69.2875 406.614L70.0543 407.256C70.7075 406.476 71.3551 405.695 71.997 404.913L71.2241 404.278ZM68.3068 407.78C67.9756 408.172 67.6459 408.564 67.3176 408.955L68.0839 409.598C68.4114 409.207 68.7402 408.816 69.0705 408.426L68.3068 407.78ZM65.3642 411.305C64.7187 412.089 64.0787 412.872 63.4442 413.655L64.2212 414.285C64.8539 413.504 65.4922 412.723 66.1359 411.941L65.3642 411.305ZM61.5572 416.005C60.9337 416.789 60.3157 417.572 59.7031 418.355L60.4908 418.971C61.1016 418.19 61.7178 417.409 62.3396 416.628L61.5572 416.005ZM57.8818 420.704C57.2782 421.489 56.6801 422.275 56.0874 423.06L56.8855 423.663C57.4765 422.88 58.0729 422.096 58.6747 421.313L57.8818 420.704ZM54.2535 425.513C53.6481 426.331 53.0485 427.148 52.4547 427.965L53.2638 428.553C53.8557 427.738 54.4535 426.923 55.0571 426.108L54.2535 425.513ZM50.6909 430.417C50.1087 431.234 49.5323 432.051 48.9616 432.867L49.7814 433.44C50.3503 432.626 50.9249 431.812 51.5053 430.997L50.6909 430.417ZM47.2669 435.317C46.7077 436.134 46.1542 436.95 45.6064 437.766L46.4367 438.324C46.9828 437.51 47.5345 436.696 48.0919 435.882L47.2669 435.317ZM43.9175 440.309C43.3587 441.159 42.8061 442.009 42.2596 442.859L43.1006 443.4C43.6454 442.553 44.1962 441.706 44.7532 440.858L43.9175 440.309ZM40.6381 445.408C40.1037 446.258 39.5754 447.107 39.053 447.956L39.9047 448.48C40.4253 447.634 40.9519 446.787 41.4846 445.941L40.6381 445.408ZM37.5039 450.502C36.9932 451.351 36.4885 452.2 35.9897 453.048L36.8518 453.555C37.3489 452.709 37.8518 451.864 38.3608 451.018L37.5039 450.502ZM34.4539 455.692C33.9484 456.573 33.4492 457.454 32.9563 458.334L33.8288 458.823C34.32 457.945 34.8175 457.068 35.3213 456.19L34.4539 455.692ZM31.4965 460.974C31.0162 461.854 30.5422 462.733 30.0744 463.612L30.9572 464.082C31.4233 463.206 31.8956 462.33 32.3742 461.454L31.4965 460.974ZM28.6896 466.248C28.2286 467.137 27.7739 468.026 27.3255 468.915L28.2182 469.365C28.665 468.48 29.118 467.595 29.5774 466.709L28.6896 466.248ZM25.9673 471.643C25.5212 472.552 25.0816 473.461 24.6485 474.369L25.5511 474.799C25.9826 473.895 26.4205 472.989 26.865 472.084L25.9673 471.643ZM23.3686 477.092C22.9484 477.999 22.5347 478.906 22.1274 479.812L23.0395 480.222C23.4453 479.319 23.8574 478.416 24.276 477.512L23.3686 477.092ZM20.9246 482.529C20.5185 483.461 20.1191 484.392 19.7264 485.322L20.6477 485.711C21.0389 484.784 21.4368 483.857 21.8413 482.929L20.9246 482.529ZM18.563 488.125C18.1819 489.059 17.8074 489.992 17.4396 490.924L18.3699 491.291C18.7362 490.363 19.1092 489.433 19.4888 488.503L18.563 488.125ZM16.356 493.72C16.0014 494.651 15.6533 495.582 15.3118 496.512L16.2504 496.856C16.5906 495.93 16.9373 495.003 17.2905 494.076L16.356 493.72ZM14.2894 499.348C13.9509 500.305 13.6193 501.262 13.2944 502.218L14.2412 502.539C14.5647 501.587 14.8951 500.635 15.2322 499.681L14.2894 499.348ZM12.3402 505.083C12.0289 506.037 11.7243 506.99 11.4265 507.943L12.3809 508.242C12.6776 507.293 12.9809 506.343 13.2909 505.393L12.3402 505.083ZM10.5528 510.799C10.2648 511.761 9.98363 512.723 9.70915 513.684L10.6707 513.958C10.944 513.002 11.224 512.044 11.5108 511.086L10.5528 510.799ZM8.89347 516.609C8.62846 517.583 8.37031 518.556 8.11896 519.528L9.08713 519.778C9.33742 518.81 9.59449 517.841 9.8584 516.871L8.89347 516.609ZM7.38523 522.442C7.14741 523.412 6.91631 524.382 6.69189 525.35L7.66606 525.576C7.88954 524.611 8.11966 523.646 8.35648 522.68L7.38523 522.442ZM6.03177 528.283C5.81551 529.273 5.60618 530.263 5.40371 531.251L6.38336 531.451C6.58497 530.467 6.79341 529.482 7.00875 528.496L6.03177 528.283ZM4.8168 534.212C4.62797 535.198 4.44593 536.183 4.27061 537.167L5.2551 537.342C5.42967 536.362 5.61093 535.382 5.79895 534.4L4.8168 534.212ZM3.76472 540.114C3.60079 541.108 3.44367 542.1 3.29329 543.091L4.28197 543.241C4.43171 542.254 4.58815 541.266 4.75137 540.277L3.76472 540.114ZM2.85829 546.088C2.7201 547.086 2.5887 548.083 2.46402 549.078L3.45626 549.203C3.58041 548.212 3.71124 547.219 3.84883 546.225L2.85829 546.088ZM2.11003 552.061C1.99869 553.053 1.894 554.045 1.79586 555.035L2.79099 555.133C2.8887 554.148 2.99294 553.161 3.1038 552.172L2.11003 552.061ZM1.51722 558.046C1.43069 559.052 1.35089 560.057 1.27776 561.06L2.27511 561.133C2.34793 560.134 2.42738 559.133 2.51354 558.131L1.51722 558.046ZM1.07823 564.066C1.01833 565.066 0.965 566.065 0.918166 567.063L1.91707 567.11C1.9637 566.116 2.0168 565.122 2.07645 564.126L1.07823 564.066ZM0.796901 570.055C0.762425 571.066 0.734584 572.076 0.713293 573.084L1.71307 573.105C1.73427 572.101 1.76199 571.096 1.79632 570.089L0.796901 570.055ZM0.668983 576.102C0.660707 577.107 0.658896 578.11 0.663465 579.111L1.66345 579.106C1.6589 578.109 1.66071 577.111 1.66895 576.111L0.668983 576.102ZM0.69623 582.109C0.713604 583.114 0.737368 584.118 0.767436 585.119L1.76699 585.089C1.73704 584.092 1.71338 583.093 1.69608 582.092L0.69623 582.109ZM0.87742 588.141C0.920421 589.146 0.969731 590.15 1.02526 591.151L2.02373 591.096C1.96843 590.099 1.91933 589.099 1.87651 588.098L0.87742 588.141ZM1.21043 594.15C1.27831 595.148 1.35233 596.144 1.43239 597.138L2.42916 597.058C2.34943 596.068 2.27572 595.076 2.20812 594.083L1.21043 594.15ZM1.69418 600.152C1.78764 601.155 1.8872 602.156 1.99279 603.155L2.98725 603.05C2.8821 602.055 2.78294 601.058 2.68987 600.059L1.69418 600.152ZM2.32754 606.146C2.44508 607.141 2.56855 608.134 2.69786 609.124L3.68945 608.995C3.56066 608.008 3.43769 607.02 3.32063 606.029L2.32754 606.146ZM3.10574 612.107C3.24843 613.106 3.39702 614.102 3.55139 615.095L4.53954 614.942C4.38578 613.952 4.2378 612.96 4.09568 611.966L3.10574 612.107ZM4.03179 618.07C4.19765 619.059 4.36921 620.046 4.54636 621.031L5.53056 620.854C5.3541 619.873 5.18322 618.89 5.01802 617.905L4.03179 618.07ZM5.09496 623.98C5.28541 624.971 5.48149 625.959 5.6831 626.946L6.66283 626.745C6.46201 625.763 6.2667 624.778 6.077 623.791L5.09496 623.98ZM6.30443 629.897C6.51701 630.878 6.73502 631.857 6.95837 632.833L7.93318 632.61C7.71069 631.638 7.49351 630.663 7.28176 629.685L6.30443 629.897ZM7.64432 635.754C7.88006 636.733 8.12113 637.709 8.36741 638.682L9.33686 638.437C9.09151 637.467 8.85136 636.495 8.61651 635.52L7.64432 635.754ZM9.12443 641.604C9.38195 642.576 9.64463 643.544 9.91235 644.51L10.876 644.243C10.6093 643.281 10.3476 642.316 10.091 641.348L9.12443 641.604ZM10.7306 647.399C11.0095 648.364 11.2933 649.325 11.5821 650.284L12.5396 649.996C12.2519 649.04 11.9691 648.082 11.6912 647.122L10.7306 647.399ZM12.4693 653.172C12.7699 654.132 13.0754 655.088 13.3856 656.042L14.3365 655.733C14.0275 654.782 13.7231 653.829 13.4236 652.873L12.4693 653.172ZM14.3303 658.894C14.6503 659.843 14.9749 660.789 15.304 661.732L16.2481 661.403C15.9202 660.463 15.5967 659.521 15.2779 658.575L14.3303 658.894ZM16.3158 664.582C16.6576 665.528 17.004 666.472 17.3548 667.412L18.2917 667.062C17.9421 666.125 17.597 665.185 17.2564 664.242L16.3158 664.582ZM18.4203 670.223C18.7798 671.157 19.1436 672.088 19.5116 673.015L20.4411 672.646C20.0743 671.722 19.7118 670.795 19.3535 669.864L18.4203 670.223ZM20.6408 675.818C21.022 676.75 21.4074 677.679 21.7969 678.605L22.7186 678.217C22.3304 677.295 21.9463 676.369 21.5664 675.44L20.6408 675.818ZM22.9774 681.371C23.375 682.29 23.7764 683.205 24.1818 684.117L25.0955 683.71C24.6915 682.802 24.2914 681.89 23.8952 680.974L22.9774 681.371ZM25.4216 686.868C25.8404 687.785 26.2631 688.698 26.6895 689.608L27.5949 689.184C27.1699 688.277 26.7487 687.366 26.3312 686.452L25.4216 686.868ZM27.9797 692.326C28.4134 693.228 28.8507 694.127 29.2916 695.021L30.1886 694.579C29.7492 693.688 29.3133 692.792 28.881 691.893L27.9797 692.326ZM30.6369 697.719C31.0917 698.62 31.5499 699.517 32.0115 700.41L32.8998 699.95C32.4397 699.06 31.9829 698.166 31.5296 697.268L30.6369 697.719ZM33.4062 703.076C33.8744 703.961 34.3458 704.842 34.8203 705.719L35.6997 705.243C35.2267 704.369 34.7568 703.491 34.2901 702.609L33.4062 703.076ZM36.2669 708.361C36.7561 709.245 37.2484 710.125 37.7436 711L38.6139 710.507C38.1202 709.635 37.6295 708.758 37.1419 707.877L36.2669 708.361ZM39.2379 713.612C39.7388 714.478 40.2426 715.34 40.7491 716.197L41.6101 715.689C41.1052 714.834 40.603 713.975 40.1035 713.111L39.2379 713.612ZM42.2941 718.785C42.8161 719.651 43.3409 720.512 43.8682 721.368L44.7196 720.843C44.194 719.99 43.6708 719.132 43.1503 718.269L42.2941 718.785ZM45.4574 723.922C45.9896 724.768 46.5242 725.61 47.061 726.447L47.9027 725.907C47.3675 725.073 46.8346 724.234 46.304 723.39L45.4574 723.922ZM48.7029 728.982C49.2565 729.828 49.8123 730.669 50.3702 731.504L51.2019 730.949C50.6457 730.116 50.0916 729.278 49.5396 728.434L48.7029 728.982ZM52.0498 733.996C52.6116 734.822 53.1754 735.642 53.7409 736.457L54.5624 735.887C53.9986 735.074 53.4366 734.256 52.8765 733.433L52.0498 733.996ZM55.4806 738.939C56.0643 739.764 56.6498 740.584 57.2368 741.398L58.0478 740.813C57.4626 740.001 56.8789 739.184 56.2969 738.362L55.4806 738.939ZM59.0021 743.822C59.5945 744.628 60.1882 745.428 60.7831 746.222L61.5835 745.622C60.9903 744.83 60.3984 744.033 59.8078 743.23L59.0021 743.822ZM62.617 748.646C63.2294 749.448 63.843 750.244 64.4575 751.033L65.2466 750.419C64.634 749.632 64.0223 748.839 63.4117 748.039L62.617 748.646ZM66.3035 753.383C66.9308 754.174 67.5588 754.958 68.1875 755.736L68.9652 755.108C68.3385 754.332 67.7124 753.55 67.087 752.762L66.3035 753.383ZM70.1044 758.085C70.7438 758.861 71.3837 759.63 72.0238 760.392L72.7895 759.749C72.1515 758.99 71.5136 758.223 70.8761 757.449L70.1044 758.085ZM73.9478 762.662C74.6128 763.439 75.2779 764.208 75.9428 764.97L76.6961 764.312C76.0334 763.553 75.3704 762.786 74.7075 762.012L73.9478 762.662ZM77.9367 767.232C78.601 767.978 79.2649 768.717 79.9282 769.447L80.6686 768.775C80.0075 768.047 79.3458 767.311 78.6836 766.567L77.9367 767.232ZM81.9757 771.68C82.6665 772.426 83.3565 773.163 84.0453 773.892L84.7719 773.205C84.0855 772.479 83.3978 771.744 82.7093 771.001L81.9757 771.68ZM86.108 776.051C86.8102 776.778 87.511 777.496 88.21 778.205L88.922 777.503C88.2255 776.797 87.5272 776.081 86.8275 775.356L86.108 776.051ZM90.3562 780.358C91.0696 781.066 91.7809 781.764 92.4898 782.452L93.1861 781.734C92.4799 781.049 91.7713 780.354 91.0605 779.648L90.3562 780.358ZM94.6572 784.531C95.4012 785.236 96.1421 785.93 96.8798 786.613L97.559 785.879C96.8243 785.199 96.0863 784.508 95.3452 783.805L94.6572 784.531ZM99.0823 788.626C99.4477 788.956 99.8122 789.283 100.176 789.607L100.841 788.86C100.479 788.538 100.116 788.212 99.7524 787.884L99.0823 788.626ZM100.008 752.464L100.008 753.996H101.008L101.008 752.464H100.008ZM100.008 757.06L100.008 760.124H101.008L101.008 757.06H100.008ZM100.008 763.188V766.252H101.008V763.188H100.008ZM100.008 769.317V772.381H101.008V769.317H100.008ZM100.008 775.445L100.008 778.509H101.008L101.008 775.445H100.008ZM100.008 781.573V784.637H101.008L101.008 781.573L100.008 781.573ZM100.008 787.701L100.008 789.233H101.008V787.701H100.008ZM100.508 788.733H98.9764L98.9764 789.733H100.508L100.508 788.733ZM95.9122 788.733H92.8481L92.8481 789.733H95.9122L95.9122 788.733ZM89.784 788.733H86.7198L86.7198 789.733H89.784L89.784 788.733ZM83.6557 788.733H80.5916L80.5916 789.733H83.6557L83.6557 788.733ZM77.5275 788.733H74.4633L74.4633 789.733H77.5275L77.5275 788.733ZM71.3992 788.733H68.3351L68.3351 789.733H71.3992L71.3992 788.733ZM65.2709 788.733H63.7389L63.7389 789.733H65.2709L65.2709 788.733Z" fill="black"/>
</svg>
